<svg width="33" height="36" viewBox="0 0 33 36" fill="none" xmlns="http://www.w3.org/2000/svg">
<g clip-path="url(#clip0)" filter="url(#filter0_d)">
<path d="M20.3826 23.6553C20.9239 23.7646 21.4514 23.4144 21.5607 22.8731L23.0433 15.5323C23.2197 14.659 22.2522 14.0084 21.51 14.5012L20.0627 15.4621L15.3673 8.39003C15.0618 7.92992 14.4412 7.80457 13.9811 8.11006L9.7184 10.9402C9.25829 11.2457 9.13295 11.8663 9.43843 12.3265L14.1339 19.3985L12.6866 20.3594C11.9444 20.8522 12.1685 21.9963 13.0418 22.1727L20.3826 23.6553Z" fill="#ED4B9E" stroke="white"/>
</g>
<defs>
<filter id="filter0_d" x="-4" y="0" width="40.8843" height="40.8843" filterUnits="userSpaceOnUse" color-interpolation-filters="sRGB">
<feFlood flood-opacity="0" result="BackgroundImageFix"/>
<feColorMatrix in="SourceAlpha" type="matrix" values="0 0 0 0 0 0 0 0 0 0 0 0 0 0 0 0 0 0 127 0"/>
<feOffset dy="4"/>
<feGaussianBlur stdDeviation="2"/>
<feColorMatrix type="matrix" values="0 0 0 0 0 0 0 0 0 0 0 0 0 0 0 0 0 0 0.25 0"/>
<feBlend mode="normal" in2="BackgroundImageFix" result="effect1_dropShadow"/>
<feBlend mode="normal" in="SourceGraphic" in2="effect1_dropShadow" result="shape"/>
</filter>
<clipPath id="clip0">
<rect width="23.7222" height="23.7222" fill="white" transform="matrix(0.833097 -0.553127 -0.553127 -0.833097 13.1215 32.8843)"/>
</clipPath>
</defs>
</svg>
