<svg width="32" height="32" viewBox="0 0 32 32" fill="none" xmlns="http://www.w3.org/2000/svg">
<path opacity="0.4" d="M23.8503 14.5289C25.7103 14.2676 27.1423 12.6729 27.1463 10.7409C27.1463 8.83693 25.7583 7.25826 23.9383 6.95959" stroke="#1FC7D4" stroke-width="1.5" stroke-linecap="round" stroke-linejoin="round"/>
<path d="M26.3047 19.0004C28.106 19.2697 29.3634 19.9004 29.3634 21.2004C29.3634 22.095 28.7714 22.6764 27.814 23.0417" stroke="#1FC7D4" stroke-width="1.5" stroke-linecap="round" stroke-linejoin="round"/>
<path fill-rule="evenodd" clip-rule="evenodd" d="M15.8489 19.5518C11.5636 19.5518 7.90356 20.2011 7.90356 22.7944C7.90356 25.3864 11.5409 26.0544 15.8489 26.0544C20.1342 26.0544 23.7929 25.4118 23.7929 22.8171C23.7929 20.2224 20.1569 19.5518 15.8489 19.5518Z" stroke="#1FC7D4" stroke-width="1.5" stroke-linecap="round" stroke-linejoin="round"/>
<path opacity="0.4" fill-rule="evenodd" clip-rule="evenodd" d="M15.8489 15.8505C18.6609 15.8505 20.9409 13.5718 20.9409 10.7585C20.9409 7.9465 18.6609 5.6665 15.8489 5.6665C13.0369 5.6665 10.7569 7.9465 10.7569 10.7585C10.7463 13.5612 13.0089 15.8412 15.8116 15.8505H15.8489Z" stroke="#1FC7D4" stroke-width="1.5" stroke-linecap="round" stroke-linejoin="round"/>
<path opacity="0.4" d="M7.84641 14.5289C5.98508 14.2676 4.55442 12.6729 4.55042 10.7409C4.55042 8.83693 5.93841 7.25826 7.75841 6.95959" stroke="#1FC7D4" stroke-width="1.5" stroke-linecap="round" stroke-linejoin="round"/>
<path d="M5.39186 19.0004C3.59052 19.2697 2.33319 19.9004 2.33319 21.2004C2.33319 22.095 2.92519 22.6764 3.88252 23.0417" stroke="#1FC7D4" stroke-width="1.5" stroke-linecap="round" stroke-linejoin="round"/>
</svg>
