<svg width="19" height="13" viewBox="0 0 19 13" fill="none" xmlns="http://www.w3.org/2000/svg">
<path d="M19 6.56885C19 6.29106 18.8947 6.02465 18.7071 5.82822C18.5196 5.63179 18.2652 5.52144 18 5.52144C17.7348 5.52144 17.4805 5.63179 17.2929 5.82822C17.1054 6.02465 17 6.29106 17 6.56885V8.97787L12.76 3.74085C12.6069 3.55344 12.3956 3.42863 12.1633 3.38839C11.931 3.34815 11.6926 3.39508 11.49 3.5209L7.22003 6.25462L2.77003 0.661486C2.68598 0.555575 2.58284 0.468039 2.4665 0.403878C2.35015 0.339716 2.22288 0.300185 2.09195 0.287541C1.96102 0.274897 1.829 0.289388 1.70341 0.330187C1.57783 0.370986 1.46115 0.437293 1.36003 0.525323C1.25891 0.613353 1.17534 0.721382 1.11408 0.843242C1.05282 0.965102 1.01508 1.09841 1.00301 1.23554C0.990936 1.37268 1.00477 1.51096 1.04372 1.6425C1.08268 1.77404 1.14598 1.89625 1.23003 2.00216L6.23003 8.28659C6.38227 8.4783 6.59482 8.60683 6.82945 8.64907C7.06409 8.69131 7.30541 8.64449 7.51003 8.51702L11.79 5.82519L15.79 10.7585H13C12.7348 10.7585 12.4805 10.8688 12.2929 11.0652C12.1054 11.2617 12 11.5281 12 11.8059C12 12.0837 12.1054 12.3501 12.2929 12.5465C12.4805 12.7429 12.7348 12.8533 13 12.8533H18C18.1231 12.8501 18.2448 12.8253 18.36 12.78L18.5 12.6962C18.5522 12.6686 18.6023 12.6371 18.65 12.6019C18.7048 12.5501 18.752 12.4901 18.79 12.4238C18.8235 12.3774 18.8536 12.3284 18.88 12.2772C18.9045 12.2206 18.9213 12.1606 18.93 12.0991C18.9706 12.0068 18.9943 11.9073 19 11.8059V6.56885Z" fill="white"/>
</svg>
