<svg width="16" height="16" viewBox="0 0 16 16" fill="none" xmlns="http://www.w3.org/2000/svg">
<path d="M5.37375 1.18249C5.69875 1.82749 5.43875 2.61499 4.7925 2.93999C4.14625 3.26499 3.36 3.00499 3.03375 2.35874C2.7075 1.71249 2.96875 0.924988 3.615 0.599988C4.26125 0.274988 5.04875 0.536238 5.37375 1.18249Z" fill="white"/>
<path d="M14.2525 6.76248C13.9613 6.39498 13.5625 6.12372 13.1338 5.88123C12.7988 5.69123 12.4938 5.51373 12.1263 5.28998C11.61 4.97623 11.1413 4.57123 10.71 4.16748C10.455 3.92873 10.21 3.68123 9.96376 3.43373C9.46376 2.93123 8.94501 2.40998 8.35501 1.96248C7.63626 1.41873 6.73376 1.11873 5.80501 1.10623C5.78876 1.06748 5.77876 1.02623 5.76001 0.988725C5.61558 0.699885 5.39338 0.457102 5.11843 0.287715C4.84348 0.118328 4.5267 0.0290644 4.20376 0.0299752C3.93376 0.0299752 3.66376 0.0937252 3.42126 0.216225C2.58876 0.634975 2.24501 1.63498 2.61876 2.47748C2.36876 2.75748 1.91751 3.30998 1.72501 3.86748C1.56751 4.32248 1.48251 4.86623 1.48501 5.39622C1.48751 6.12248 1.53251 6.84998 1.57626 7.55373C1.63751 8.55873 1.70126 9.59748 1.63876 10.6212C1.63251 10.7212 1.62501 10.8312 1.61626 10.9487C1.57376 11.5137 1.52626 12.235 1.61376 12.9C1.67626 13.58 1.91626 14.2337 2.45626 14.8412C3.94126 16.19 7.18751 16.5962 10.775 14.585C14.085 12.73 14.6475 10.7437 14.9338 9.45748C15.1325 8.55123 14.9575 7.65247 14.2525 6.76248Z" fill="#FCC21B"/>
<path d="M11.6025 7.84625C10.2538 7.8925 8.60375 8.4325 7.0875 9.3025C5.73 10.0825 4.64125 11.0362 3.985 11.9875C3.41 12.83 3.24875 13.5862 3.5275 14.0737C3.82125 14.5837 4.7 14.9112 5.8275 14.9287C7.08625 14.9512 8.535 14.5937 9.82625 13.9387C11.1913 13.2475 12.3525 12.2487 13.0888 11.1212C13.7438 10.1212 13.9563 9.1625 13.6425 8.57625C13.3725 8.07 12.6425 7.81125 11.6025 7.84625Z" fill="#2F2F2F"/>
<path d="M10.7275 8.92376C11.2613 9.98501 10.8338 11.28 9.77126 11.8138C8.70876 12.3488 7.41501 11.9213 6.87876 10.8588C6.34501 9.79751 6.77126 8.50251 7.83376 7.96751C8.89751 7.43251 10.1913 7.86126 10.7275 8.92376Z" fill="#FCC21B"/>
<path d="M9.84876 7.72375C10.2975 7.87625 10.5625 8.41751 10.5788 8.67626C9.83001 8.28626 8.76751 8.62501 8.06376 9.24251C7.38376 9.84001 7.07501 10.7488 7.14751 11.2675C6.37251 10.9538 6.09876 9.49125 6.68001 9.05625L9.84876 7.72375Z" fill="#B89278"/>
<path d="M8.74802 11.3301C9.07984 11.1632 9.21357 10.759 9.04671 10.4271C8.87985 10.0953 8.47559 9.96159 8.14377 10.1284C7.81195 10.2953 7.67822 10.6996 7.84508 11.0314C8.01194 11.3632 8.4162 11.4969 8.74802 11.3301Z" fill="white"/>
<path d="M3.80875 0.987518C3.9325 0.925018 4.065 0.893768 4.2025 0.893768C4.36625 0.893768 4.52125 0.940018 4.655 1.02002C4.70125 1.05627 4.73375 1.10627 4.70625 1.16877C4.6875 1.21502 4.64 1.24127 4.5875 1.26252C4.34375 1.33002 4.10875 1.41877 3.885 1.52627C3.805 1.56127 3.7275 1.60002 3.65125 1.63002C3.53125 1.67752 3.39125 1.76627 3.3775 1.58002C3.3775 1.56877 3.38375 1.50377 3.395 1.44377C3.47 1.25252 3.61125 1.08627 3.80875 0.987518Z" fill="#2F2F2F"/>
<path d="M3.92376 6.36375C3.41626 4.67375 3.38626 3.5875 3.58876 2.84125C3.61501 2.74625 3.60251 2.6275 3.49251 2.715C3.26376 2.8975 2.885 3.22625 2.72125 3.50625C2.675 3.58375 2.64875 3.66625 2.62875 3.7525C2.62875 3.7525 2.33875 4.65875 2.555 5.86C2.75625 6.98625 3.08626 8.68125 2.73125 10.7875C2.7075 10.9288 2.7125 11.14 2.81625 11.0175C3.07751 10.7125 3.59626 10.1113 4.03376 9.65125C4.05876 9.625 4.12501 9.52125 4.14501 9.4225C4.22751 9.02875 4.38376 7.8975 3.92376 6.36375Z" fill="white"/>
</svg>
