<svg width="20" height="13" viewBox="0 0 20 13" fill="none" xmlns="http://www.w3.org/2000/svg">
<path d="M19 1.33183C19.0095 1.25884 19.0095 1.18486 19 1.11187C18.9913 1.05038 18.9745 0.990452 18.95 0.933814C18.9236 0.882625 18.8935 0.833606 18.86 0.787178C18.8219 0.720933 18.7748 0.660933 18.72 0.609119L18.6 0.535801C18.5423 0.490717 18.4782 0.455376 18.41 0.43106H18.21C18.149 0.369258 18.0779 0.319572 18 0.284424H13C12.7348 0.284424 12.4804 0.394775 12.2929 0.591202C12.1053 0.787628 12 1.05404 12 1.33183C12 1.60962 12.1053 1.87603 12.2929 2.07245C12.4804 2.26888 12.7348 2.37923 13 2.37923H15.83L11.83 7.31251L7.50999 4.62068C7.30537 4.49321 7.06405 4.44638 6.82941 4.48862C6.59478 4.53086 6.38223 4.65939 6.22999 4.85111L1.22999 11.1355C1.14579 11.2414 1.08235 11.3636 1.0433 11.4951C1.00426 11.6267 0.990378 11.765 1.00245 11.9022C1.01453 12.0394 1.05233 12.1727 1.11368 12.2946C1.17503 12.4165 1.25873 12.5244 1.35999 12.6124C1.5399 12.7685 1.76634 12.8538 1.99999 12.8533C2.1469 12.8535 2.29206 12.8199 2.42514 12.7547C2.55823 12.6895 2.67597 12.5944 2.76999 12.4762L7.21999 6.88307L11.49 9.56442C11.6925 9.69025 11.9309 9.73717 12.1633 9.69693C12.3956 9.6567 12.6069 9.53188 12.76 9.34447L17 4.15982V6.56885C17 6.84664 17.1053 7.11305 17.2929 7.30948C17.4804 7.5059 17.7348 7.61625 18 7.61625C18.2652 7.61625 18.5196 7.5059 18.7071 7.30948C18.8946 7.11305 19 6.84664 19 6.56885V1.33183Z" fill="white"/>
</svg>
