<svg width="14" height="14" viewBox="0 0 14 14" fill="none" xmlns="http://www.w3.org/2000/svg">
<path d="M8.41006 7L12.7101 2.71C12.8984 2.5217 13.0042 2.2663 13.0042 2C13.0042 1.7337 12.8984 1.47831 12.7101 1.29C12.5218 1.1017 12.2664 0.995911 12.0001 0.995911C11.7338 0.995911 11.4784 1.1017 11.2901 1.29L7.00006 5.59L2.71006 1.29C2.52176 1.1017 2.26636 0.995911 2.00006 0.995911C1.73376 0.995911 1.47836 1.1017 1.29006 1.29C1.10176 1.47831 0.995969 1.7337 0.995969 2C0.995969 2.2663 1.10176 2.5217 1.29006 2.71L5.59006 7L1.29006 11.29C1.19633 11.383 1.12194 11.4936 1.07117 11.6154C1.0204 11.7373 0.994263 11.868 0.994263 12C0.994263 12.132 1.0204 12.2627 1.07117 12.3846C1.12194 12.5064 1.19633 12.617 1.29006 12.71C1.38302 12.8037 1.49362 12.8781 1.61548 12.9289C1.73734 12.9797 1.86805 13.0058 2.00006 13.0058C2.13207 13.0058 2.26278 12.9797 2.38464 12.9289C2.5065 12.8781 2.6171 12.8037 2.71006 12.71L7.00006 8.41L11.2901 12.71C11.383 12.8037 11.4936 12.8781 11.6155 12.9289C11.7373 12.9797 11.868 13.0058 12.0001 13.0058C12.1321 13.0058 12.2628 12.9797 12.3846 12.9289C12.5065 12.8781 12.6171 12.8037 12.7101 12.71C12.8038 12.617 12.8782 12.5064 12.929 12.3846C12.9797 12.2627 13.0059 12.132 13.0059 12C13.0059 11.868 12.9797 11.7373 12.929 11.6154C12.8782 11.4936 12.8038 11.383 12.7101 11.29L8.41006 7Z" fill="#C4C4C4"/>
</svg>
