<svg width="16" height="16" viewBox="0 0 16 16" fill="none" xmlns="http://www.w3.org/2000/svg">
<path d="M7.99998 1.33337C4.32398 1.33337 1.33331 4.32404 1.33331 8.00004C1.33331 11.676 4.32398 14.6667 7.99998 14.6667C11.676 14.6667 14.6666 11.676 14.6666 8.00004C14.6666 4.32404 11.676 1.33337 7.99998 1.33337ZM8.66665 11.2767V12H7.33331V11.28C5.77398 11.0354 5.33331 9.94537 5.33331 9.33337H6.66665C6.67398 9.42871 6.77265 10 7.99998 10C8.91998 10 9.33331 9.61004 9.33331 9.33337C9.33331 9.11737 9.33331 8.66671 7.99998 8.66671C5.67998 8.66671 5.33331 7.41337 5.33331 6.66671C5.33331 5.80804 6.01931 4.94404 7.33331 4.72337V4.00804H8.66665V4.74737C9.82265 5.02071 10.2666 5.98271 10.2666 6.66671H9.59998L8.93331 6.67871C8.92398 6.42537 8.78998 6.00004 7.99998 6.00004C7.13398 6.00004 6.66665 6.34404 6.66665 6.66671C6.66665 6.91604 6.66665 7.33337 7.99998 7.33337C10.32 7.33337 10.6666 8.58671 10.6666 9.33337C10.6666 10.192 9.98065 11.056 8.66665 11.2767Z" fill="#FCC21B"/>
</svg>
