<svg width="14" height="28" viewBox="0 0 14 28" fill="none" xmlns="http://www.w3.org/2000/svg">
<path d="M5.95432 9.00342L5.935 9.10592H5.97365L5.95432 9.00342Z" fill="#313E69"/>
<path d="M1.72139 18.9885C2.44697 19.2269 3.19135 19.4035 3.9466 19.5164L3.04527 24.2322C2.94592 24.7513 2.67011 25.22 2.26474 25.5585L1.18947 26.4559L0 28L1.72139 18.9885Z" fill="#313E69"/>
<path d="M8.12594 8.19676C8.48774 7.83001 8.75105 7.37759 8.89141 6.88157C9.03176 6.38554 9.04459 5.86203 8.9287 5.35971C8.8128 4.85738 8.57196 4.39257 8.22856 4.00849C7.88516 3.62441 7.45035 3.33354 6.96458 3.16292V0.445625C6.96446 0.327473 6.91755 0.214195 6.83413 0.130649C6.75071 0.0471035 6.6376 0.000116463 6.51962 0L5.38901 0C5.27104 0.000116463 5.15793 0.0471035 5.07451 0.130649C4.99109 0.214195 4.94418 0.327473 4.94406 0.445625V3.16292C4.45829 3.33354 4.02348 3.62441 3.68008 4.00849C3.33668 4.39257 3.09583 4.85738 2.97994 5.35971C2.86405 5.86203 2.87688 6.38554 3.01723 6.88157C3.15758 7.37759 3.4209 7.83001 3.7827 8.19676L2.32178 15.8445C3.03904 16.1106 3.78335 16.2969 4.54127 16.4001L5.93499 9.10605L5.95432 9.00355L5.97365 9.10605L7.36736 16.4006C8.12531 16.297 8.86961 16.1104 9.58686 15.8441L8.12594 8.19676ZM5.95432 7.78633C5.61117 7.78633 5.27572 7.68442 4.9904 7.49349C4.70508 7.30256 4.4827 7.03118 4.35138 6.71367C4.22006 6.39616 4.1857 6.04678 4.25265 5.70971C4.31959 5.37264 4.48484 5.06303 4.72748 4.82002C4.97013 4.577 5.27928 4.41151 5.61584 4.34446C5.95239 4.27742 6.30125 4.31183 6.61828 4.44335C6.93531 4.57486 7.20628 4.79758 7.39693 5.08333C7.58757 5.36908 7.68933 5.70503 7.68933 6.0487C7.68939 6.27691 7.64455 6.50289 7.55738 6.71373C7.47021 6.92458 7.34241 7.11616 7.18129 7.27752C7.02016 7.43889 6.82887 7.56688 6.61835 7.65418C6.40782 7.74148 6.18218 7.78639 5.95432 7.78633Z" fill="#313E69"/>
<path d="M11.9089 28.0001L10.7176 26.456L9.64413 25.5586C9.23867 25.22 8.96285 24.7512 8.8636 24.2319L7.96271 19.5152C8.71782 19.4023 9.46205 19.2257 10.1875 18.9873L11.9089 28.0001Z" fill="#313E69"/>
<path opacity="0.4" d="M13.9947 15.8339C13.9821 15.9619 13.9425 16.0859 13.8787 16.1975C13.8149 16.3092 13.7283 16.4061 13.6244 16.4819C11.4053 18.1272 8.71541 19.0116 5.95437 19.0039C4.12474 19.0079 2.31536 18.6204 0.647437 17.8672C0.531851 17.8155 0.42847 17.74 0.344068 17.6455C0.259666 17.5511 0.196149 17.4398 0.157681 17.319C0.112593 17.1799 0.10094 17.0321 0.12367 16.8876C0.146399 16.7431 0.202869 16.6061 0.288483 16.4876C0.374098 16.3691 0.486438 16.2725 0.616362 16.2057C0.746286 16.1389 0.890123 16.1037 1.03617 16.1031C1.16401 16.1032 1.29037 16.1305 1.40689 16.1832C2.94979 16.8753 4.62994 17.206 6.31963 17.1502C8.00931 17.0944 9.66406 16.6536 11.1581 15.8612V14.2969L12.4591 15.0447L12.5316 14.9919C12.689 14.8747 12.8801 14.8116 13.0763 14.812C13.2062 14.8119 13.3346 14.8393 13.4533 14.8923C13.5719 14.9454 13.678 15.023 13.7646 15.1199C13.8512 15.2159 13.9165 15.3291 13.9562 15.4522C13.9959 15.5753 14.009 15.7054 13.9947 15.8339Z" fill="#313E69"/>
</svg>
