<svg width="11" height="14" viewBox="0 0 11 14" fill="none" xmlns="http://www.w3.org/2000/svg">
<path d="M1.80002 2.19998C1.80002 1.77563 1.96859 1.36866 2.26865 1.0686C2.56871 0.768546 2.97567 0.599976 3.40002 0.599976H6.26882C6.58697 0.600256 6.89199 0.726868 7.11682 0.951976L10.2488 4.08318C10.4736 4.30813 10.6 4.61314 10.6 4.93118V10.2C10.6 10.6243 10.4314 11.0313 10.1314 11.3313C9.83133 11.6314 9.42437 11.8 9.00002 11.8H3.40002C2.97567 11.8 2.56871 11.6314 2.26865 11.3313C1.96859 11.0313 1.80002 10.6243 1.80002 10.2V2.19998ZM3.40002 1.39998C3.18785 1.39998 2.98436 1.48426 2.83433 1.63429C2.6843 1.78432 2.60002 1.9878 2.60002 2.19998V10.2C2.60002 10.4121 2.6843 10.6156 2.83433 10.7657C2.98436 10.9157 3.18785 11 3.40002 11H9.00002C9.21219 11 9.41567 10.9157 9.5657 10.7657C9.71573 10.6156 9.80002 10.4121 9.80002 10.2V5.39998H7.00002C6.68176 5.39998 6.37653 5.27355 6.15149 5.0485C5.92645 4.82346 5.80002 4.51824 5.80002 4.19998V1.39998H3.40002ZM6.60002 1.56558V4.19998C6.60002 4.30606 6.64216 4.4078 6.71718 4.48282C6.79219 4.55783 6.89393 4.59998 7.00002 4.59998H9.63442L6.60002 1.56558Z" fill="#7645D9"/>
<path d="M0.200012 2.99995C0.200012 2.78778 0.284298 2.5843 0.434327 2.43427C0.584356 2.28424 0.787839 2.19995 1.00001 2.19995V10.2C1.00001 10.8365 1.25287 11.4469 1.70296 11.897C2.15304 12.3471 2.76349 12.6 3.40001 12.6H9.00001C9.00001 12.8121 8.91573 13.0156 8.7657 13.1656C8.61567 13.3157 8.41219 13.4 8.20001 13.4H3.35201C2.51605 13.4 1.71433 13.0679 1.12321 12.4768C0.532097 11.8856 0.200012 11.0839 0.200012 10.248V2.99995Z" fill="#7645D9"/>
</svg>
