<svg width="35" height="35" viewBox="0 0 35 35" fill="none" xmlns="http://www.w3.org/2000/svg">
<circle cx="17.4057" cy="17.5" r="17.4057" fill="#0B0D19"/>
<path d="M18.0246 24.849H17.9472C16.8863 24.841 15.8376 24.6213 14.8626 24.2028C13.8876 23.7844 13.0059 23.1757 12.2691 22.4122C10.9028 20.9512 10.1262 19.0358 10.089 17.0358C10.0519 15.0358 10.7569 13.0929 12.068 11.5821C12.9126 10.6355 13.9745 9.90808 15.1623 9.46244C15.3009 9.4091 15.4519 9.39679 15.5973 9.42697C15.7427 9.45715 15.8764 9.52854 15.9823 9.63262C16.0804 9.73267 16.1495 9.85747 16.1822 9.99372C16.2149 10.13 16.21 10.2725 16.168 10.4062C15.744 11.5673 15.66 12.8252 15.9258 14.0324C16.1917 15.2396 16.7963 16.3459 17.6687 17.2215C18.5493 18.0913 19.6583 18.6938 20.8671 18.9594C22.076 19.225 23.3354 19.1428 24.4995 18.7222C24.638 18.6735 24.7876 18.6652 24.9307 18.6983C25.0738 18.7314 25.2046 18.8046 25.3076 18.9092C25.4107 19.0139 25.4818 19.1458 25.5127 19.2894C25.5435 19.433 25.5329 19.5824 25.4819 19.7202C25.0868 20.7751 24.4694 21.7328 23.6718 22.5283C22.9298 23.2681 22.0489 23.8539 21.0798 24.2522C20.1106 24.6505 19.0723 24.8533 18.0246 24.849ZM14.2804 11.6362C13.8918 11.9087 13.5362 12.2255 13.2206 12.58C12.1566 13.7993 11.5833 15.3702 11.6118 16.9883C11.6404 18.6063 12.2689 20.156 13.3753 21.337C13.9699 21.9544 14.6821 22.4465 15.47 22.7839C16.258 23.1214 17.1055 23.2975 17.9627 23.3019H18.0246C19.0505 23.3013 20.0615 23.056 20.9737 22.5865C21.8858 22.117 22.6729 21.4367 23.2695 20.6021C22.0537 20.7596 20.8179 20.6364 19.6572 20.2419C18.4964 19.8474 17.4415 19.1921 16.5735 18.3263C15.7055 17.4605 15.0475 16.4073 14.65 15.2476C14.2524 14.0878 14.126 12.8524 14.2804 11.6362Z" fill="white"/>
</svg>
