<svg width="29" height="21" viewBox="0 0 29 21" fill="none" xmlns="http://www.w3.org/2000/svg">
<path fill-rule="evenodd" clip-rule="evenodd" d="M26.7693 18.9277H8.68123L2.47418 10.9277L8.68123 2.92773H26.7693V18.9277ZM27.8846 0.927734H8.09901C7.73428 0.927734 7.39186 1.08773 7.18329 1.35673L0.199931 10.3567C-0.0666436 10.6997 -0.0666436 11.1557 0.199931 11.4987L7.18329 20.4987C7.39186 20.7677 7.73428 20.9277 8.09901 20.9277H27.8846C28.5003 20.9277 29 20.4797 29 19.9277V1.92773C29 1.37573 28.5003 0.927734 27.8846 0.927734ZM12.0385 14.8847C12.256 15.0797 12.5415 15.1777 12.8271 15.1777C13.1126 15.1777 13.3981 15.0797 13.6156 14.8847L16.452 12.3417L19.2884 14.8847C19.5059 15.0797 19.7915 15.1777 20.077 15.1777C20.3625 15.1777 20.6481 15.0797 20.8656 14.8847C21.3017 14.4937 21.3017 13.8617 20.8656 13.4707L18.0292 10.9277L20.8656 8.38474C21.3017 7.99374 21.3017 7.36173 20.8656 6.97073C20.4295 6.57973 19.7246 6.57973 19.2884 6.97073L16.452 9.51373L13.6156 6.97073C13.1795 6.57973 12.4746 6.57973 12.0385 6.97073C11.6024 7.36173 11.6024 7.99374 12.0385 8.38474L14.8749 10.9277L12.0385 13.4707C11.6024 13.8617 11.6024 14.4937 12.0385 14.8847Z" fill="#C2C3C5"/>
</svg>
