<svg width="6" height="4" viewBox="0 0 6 4" fill="none" xmlns="http://www.w3.org/2000/svg">
<path d="M2.62351 3.57L0.225505 0.829C-0.0574945 0.5065 0.172505 1.83853e-07 0.602006 1.83853e-07H5.39801C5.49413 -8.22297e-05 5.58824 0.0275439 5.66906 0.0795705C5.74989 0.131597 5.814 0.205818 5.85373 0.293347C5.89346 0.380875 5.90711 0.477999 5.89306 0.573089C5.87901 0.668178 5.83785 0.757203 5.77451 0.8295L3.37651 3.5695C3.32958 3.6232 3.2717 3.66625 3.20676 3.69574C3.14182 3.72523 3.07133 3.74049 3.00001 3.74049C2.92868 3.74049 2.85819 3.72523 2.79325 3.69574C2.72831 3.66625 2.67044 3.6232 2.62351 3.5695V3.57Z" fill="#7645D9"/>
</svg>
