<svg width="12" height="12" viewBox="0 0 12 12" fill="none" xmlns="http://www.w3.org/2000/svg">
<path d="M6 0.75C3.10078 0.75 0.75 3.10078 0.75 6C0.75 8.89922 3.10078 11.25 6 11.25C8.89922 11.25 11.25 8.89922 11.25 6C11.25 3.10078 8.89922 0.75 6 0.75ZM6 10.3594C3.59297 10.3594 1.64062 8.40703 1.64062 6C1.64062 4.95703 2.00742 3.99844 2.61914 3.24844L8.75156 9.38086C8.00156 9.99258 7.04297 10.3594 6 10.3594ZM9.38086 8.75156L3.24844 2.61914C3.99844 2.00742 4.95703 1.64062 6 1.64062C8.40703 1.64062 10.3594 3.59297 10.3594 6C10.3594 7.04297 9.99258 8.00156 9.38086 8.75156Z" fill="#ED4B9E"/>
</svg>
