<svg width="33" height="32" viewBox="0 0 33 32" fill="none" xmlns="http://www.w3.org/2000/svg">
<path d="M29.9095 27.4286V29.4095H5.07141C4.61426 29.4095 4.00474 29.2571 3.69998 28.8C3.39522 28.4952 3.09045 28.0381 3.09045 27.4286V2.74286H5.07141V27.4286H29.9095Z" fill="#313E69"/>
<path opacity="0.4" d="M27.9286 20.419L21.3762 23.4667C20.919 23.619 20.6143 23.619 20.1571 23.619L12.5381 21.7905L5.68094 27.4286H5.07141V25.4476L11.319 20.2667C11.6238 20.1143 11.7762 19.9619 12.0809 19.8095C12.3857 19.8095 12.6905 19.8095 12.9952 19.8095L20.6143 21.6381L27.1666 18.5905L27.9286 20.419Z" fill="#313E69"/>
<path opacity="0.4" d="M27.9286 12.8L21.3762 15.8476C20.919 16 20.6143 16 20.1571 16L12.5381 14.1714L5.07141 20.2667V17.8286L11.319 12.6476C11.4714 12.4952 11.7762 12.3429 12.0809 12.1905C12.3857 12.1905 12.6905 12.1905 12.9952 12.1905L20.6143 14.019L27.1666 10.9714L27.9286 12.8Z" fill="#313E69"/>
<path opacity="0.4" d="M27.9286 5.18095L21.3762 8.22857C20.919 8.38095 20.6143 8.38095 20.1571 8.38095L12.5381 6.55238L5.07141 12.6476V10.2095L11.319 5.02857C11.4714 4.87619 11.7762 4.72381 12.0809 4.57143C12.3857 4.57143 12.6905 4.57143 12.9952 4.57143L20.6143 6.4L27.1666 3.35238L27.9286 5.18095Z" fill="#313E69"/>
</svg>
