<svg width="32" height="32" viewBox="0 0 32 32" fill="none" xmlns="http://www.w3.org/2000/svg">
<path d="M29.4095 27.4286V29.4095H4.57141C4.11426 29.4095 3.50474 29.2571 3.19998 28.8C2.89522 28.4952 2.59045 28.0381 2.59045 27.4286V2.74286H4.57141V27.4286H29.4095Z" fill="white"/>
<path opacity="0.4" d="M27.4286 20.419L20.8762 23.4667C20.419 23.619 20.1143 23.619 19.6571 23.619L12.0381 21.7905L5.18094 27.4286H4.57141V25.4476L10.819 20.2667C11.1238 20.1143 11.2762 19.9619 11.5809 19.8095C11.8857 19.8095 12.1905 19.8095 12.4952 19.8095L20.1143 21.6381L26.6666 18.5905L27.4286 20.419Z" fill="white"/>
<path opacity="0.4" d="M27.4286 12.8L20.8762 15.8476C20.419 16 20.1143 16 19.6571 16L12.0381 14.1714L4.57141 20.2667V17.8286L10.819 12.6476C10.9714 12.4952 11.2762 12.3429 11.5809 12.1905C11.8857 12.1905 12.1905 12.1905 12.4952 12.1905L20.1143 14.019L26.6666 10.9714L27.4286 12.8Z" fill="white"/>
<path opacity="0.4" d="M27.4286 5.18095L20.8762 8.22857C20.419 8.38095 20.1143 8.38095 19.6571 8.38095L12.0381 6.55238L4.57141 12.6476V10.2095L10.819 5.02857C10.9714 4.87619 11.2762 4.72381 11.5809 4.57143C11.8857 4.57143 12.1905 4.57143 12.4952 4.57143L20.1143 6.4L26.6666 3.35238L27.4286 5.18095Z" fill="white"/>
</svg>
