<svg width="32" height="32" viewBox="0 0 32 32" fill="none" xmlns="http://www.w3.org/2000/svg">
<path d="M29.4095 27.4285V29.4095H4.57141C4.11426 29.4095 3.50474 29.2571 3.19998 28.7999C2.89522 28.4952 2.59045 28.038 2.59045 27.4285V2.7428H4.57141V27.4285H29.4095Z" fill="#1FC7D4"/>
<path opacity="0.4" d="M27.4286 20.419L20.8762 23.4666C20.419 23.619 20.1143 23.619 19.6571 23.619L12.0381 21.7905L5.18094 27.4286H4.57141V25.4476L10.819 20.2666C11.1238 20.1143 11.2762 19.9619 11.5809 19.8095C11.8857 19.8095 12.1905 19.8095 12.4952 19.8095L20.1143 21.6381L26.6666 18.5905L27.4286 20.419Z" fill="#1FC7D4"/>
<path opacity="0.4" d="M27.4286 12.8L20.8762 15.8476C20.419 16 20.1143 16 19.6571 16L12.0381 14.1714L4.57141 20.2667V17.8286L10.819 12.6476C10.9714 12.4952 11.2762 12.3429 11.5809 12.1905C11.8857 12.1905 12.1905 12.1905 12.4952 12.1905L20.1143 14.0191L26.6666 10.9714L27.4286 12.8Z" fill="#1FC7D4"/>
<path opacity="0.4" d="M27.4286 5.18099L20.8762 8.22861C20.419 8.38099 20.1143 8.38099 19.6571 8.38099L12.0381 6.55242L4.57141 12.6477V10.2096L10.819 5.02861C10.9714 4.87623 11.2762 4.72385 11.5809 4.57146C11.8857 4.57146 12.1905 4.57146 12.4952 4.57146L20.1143 6.40004L26.6666 3.35242L27.4286 5.18099Z" fill="#1FC7D4"/>
</svg>
