<svg width="12" height="10" viewBox="0 0 12 10" fill="none" xmlns="http://www.w3.org/2000/svg">
<path d="M2.80849 0.9169C2.76186 0.869218 2.70632 0.831211 2.64503 0.805052C2.58374 0.778893 2.51791 0.765094 2.4513 0.764444C2.38469 0.763794 2.3186 0.776305 2.25681 0.801263C2.19503 0.826221 2.13875 0.863137 2.09121 0.9099C1.55338 1.44581 1.12676 2.08314 0.835947 2.78514C0.545134 3.48714 0.39589 4.2399 0.396824 5C0.395952 5.78927 0.556942 6.57029 0.869801 7.29459C1.18266 8.0189 1.64071 8.67102 2.21553 9.2105C2.31227 9.30013 2.44007 9.34845 2.57178 9.34518C2.70348 9.34191 2.82874 9.28732 2.92094 9.193C3.14164 8.9718 3.1144 8.6197 2.90208 8.416C2.44077 7.97538 2.07367 7.44534 1.82309 6.8581C1.57252 6.27086 1.4437 5.63869 1.44446 5C1.44446 3.7078 1.962 2.536 2.80151 1.6834C3.00405 1.4769 3.02501 1.1339 2.80849 0.9169Z" fill="#7645D9"/>
<path d="M4.03842 2.1503C3.94643 2.05544 3.82068 2.001 3.68872 1.9989C3.55676 1.9968 3.42934 2.04721 3.3344 2.1391C2.95643 2.51295 2.65644 2.95842 2.45188 3.44958C2.24732 3.94074 2.14229 4.46777 2.14289 5C2.14289 6.1844 2.65274 7.2491 3.46501 7.9848C3.56087 8.06968 3.68563 8.11434 3.81345 8.10952C3.94127 8.10469 4.06234 8.05076 4.15156 7.9589C4.38065 7.7293 4.33804 7.3681 4.12293 7.1651C3.82806 6.88729 3.59317 6.55182 3.4328 6.17942C3.27243 5.80702 3.18997 5.40561 3.19053 5C3.19053 4.195 3.50971 3.4642 4.02864 2.928C4.22839 2.7222 4.26121 2.3729 4.03842 2.1503Z" fill="#7645D9"/>
<path d="M7.93007 2.1503C8.02206 2.05544 8.14781 2.001 8.27977 1.9989C8.41173 1.9968 8.53915 2.04721 8.63409 2.1391C9.01205 2.51295 9.31205 2.95842 9.51661 3.44958C9.72117 3.94074 9.8262 4.46777 9.8256 5C9.8256 6.1844 9.31575 7.2491 8.50348 7.9848C8.40762 8.06968 8.28285 8.11434 8.15503 8.10952C8.02721 8.10469 7.90615 8.05076 7.81693 7.9589C7.58784 7.7293 7.63045 7.3681 7.84556 7.1651C8.14043 6.88729 8.37531 6.55182 8.53569 6.17942C8.69606 5.80702 8.77852 5.40561 8.77796 5C8.77796 4.195 8.45878 3.4642 7.93985 2.928C7.7401 2.7222 7.70727 2.3729 7.93007 2.1503Z" fill="#7645D9"/>
<path d="M9.15998 0.9169C9.20661 0.869218 9.26216 0.831211 9.32345 0.805052C9.38473 0.778893 9.45057 0.765094 9.51718 0.764444C9.58379 0.763794 9.64988 0.776305 9.71166 0.801263C9.77345 0.826221 9.82972 0.863137 9.87727 0.9099C10.4151 1.44581 10.8417 2.08314 11.1325 2.78514C11.4233 3.48714 11.5726 4.2399 11.5717 5C11.5725 5.78927 11.4115 6.57029 11.0987 7.29459C10.7858 8.0189 10.3278 8.67102 9.75295 9.2105C9.6562 9.30013 9.52841 9.34845 9.3967 9.34518C9.26499 9.34191 9.13974 9.28732 9.04754 9.193C8.82683 8.9718 8.85407 8.6197 9.06709 8.416C9.52828 7.97532 9.89525 7.44525 10.1457 6.85801C10.3962 6.27078 10.5249 5.63864 10.524 5C10.524 3.7078 10.0065 2.536 9.16697 1.6834C8.96442 1.4769 8.94347 1.1339 9.15998 0.9169Z" fill="#7645D9"/>
<path d="M5.98426 3.95C5.7064 3.95 5.43993 4.06063 5.24346 4.25754C5.04699 4.45446 4.93661 4.72153 4.93661 5C4.93661 5.27848 5.04699 5.54555 5.24346 5.74247C5.43993 5.93938 5.7064 6.05 5.98426 6.05C6.26211 6.05 6.52858 5.93938 6.72505 5.74247C6.92152 5.54555 7.0319 5.27848 7.0319 5C7.0319 4.72153 6.92152 4.45446 6.72505 4.25754C6.52858 4.06063 6.26211 3.95 5.98426 3.95Z" fill="#7645D9"/>
</svg>
