<svg width="24" height="24" viewBox="0 0 24 24" fill="none" xmlns="http://www.w3.org/2000/svg">
<circle cx="12" cy="12" r="12" fill="#ECECEC"/>
<path fill-rule="evenodd" clip-rule="evenodd" d="M15.3559 11.2201C15.0712 10.9355 15.0712 10.474 15.3559 10.1894C15.6405 9.90475 16.102 9.90475 16.3866 10.1894C16.6712 10.474 16.6712 10.9355 16.3866 11.2201C16.102 11.5048 15.6405 11.5048 15.3559 11.2201ZM12.9079 13.6681C12.6944 13.4547 12.6944 13.1085 12.9079 12.8951C13.1213 12.6816 13.4675 12.6816 13.6809 12.8951C13.8944 13.1085 13.8944 13.4547 13.6809 13.6681C13.4675 13.8816 13.1213 13.8816 12.9079 13.6681ZM16.7731 12.3797C16.5596 12.1662 16.5596 11.8201 16.7731 11.6067C16.9866 11.3932 17.3327 11.3932 17.5462 11.6067C17.7596 11.8201 17.7596 12.1662 17.5462 12.3797C17.3327 12.5932 16.9866 12.5932 16.7731 12.3797ZM15.4847 13.6681C15.2712 13.4547 15.2712 13.1085 15.4847 12.8951C15.6982 12.6816 16.0443 12.6816 16.2578 12.8951C16.4712 13.1085 16.4712 13.4547 16.2578 13.6681C16.0443 13.8816 15.6982 13.8816 15.4847 13.6681ZM18.1904 13.5393C18.0481 13.397 18.0481 13.1662 18.1904 13.0239C18.3327 12.8816 18.5634 12.8816 18.7057 13.0239C18.8481 13.1662 18.8481 13.397 18.7057 13.5393C18.5634 13.6816 18.3327 13.6816 18.1904 13.5393ZM16.902 14.8277C16.7596 14.6854 16.7596 14.4547 16.902 14.3124C17.0443 14.17 17.275 14.17 17.4173 14.3124C17.5596 14.4547 17.5596 14.6854 17.4173 14.8277C17.275 14.97 17.0443 14.97 16.902 14.8277ZM14.0675 12.5085C13.7828 12.2239 13.7828 11.7624 14.0675 11.4778C14.3521 11.1932 14.8136 11.1932 15.0982 11.4778C15.3828 11.7624 15.3828 12.2239 15.0982 12.5085C14.8136 12.7932 14.3521 12.7932 14.0675 12.5085ZM14.0675 9.93172C13.7828 9.64707 13.7828 9.18559 14.0675 8.90097C14.3521 8.61634 14.8136 8.61634 15.0982 8.90097C15.3828 9.18559 15.3828 9.64707 15.0982 9.93172C14.8136 10.2163 14.3521 10.2163 14.0675 9.93172ZM12.779 11.2201C12.4944 10.9355 12.4944 10.474 12.779 10.1894C13.0636 9.90475 13.5251 9.90475 13.8098 10.1894C14.0944 10.474 14.0944 10.9355 13.8098 11.2201C13.5251 11.5048 13.0636 11.5048 12.779 11.2201ZM10.1902 11.2201C9.90559 10.9355 9.90559 10.474 10.1902 10.1894C10.4748 9.90475 10.9363 9.90475 11.221 10.1894C11.5056 10.474 11.5056 10.9355 11.221 11.2201C10.9363 11.5048 10.4748 11.5048 10.1902 11.2201ZM7.74221 13.6681C7.52874 13.4547 7.52874 13.1085 7.74221 12.8951C7.95571 12.6816 8.3018 12.6816 8.51527 12.8951C8.72874 13.1085 8.72874 13.4547 8.51527 13.6681C8.3018 13.8816 7.95571 13.8816 7.74221 13.6681ZM11.6075 12.3797C11.394 12.1662 11.394 11.8201 11.6075 11.6067C11.821 11.3932 12.1671 11.3932 12.3805 11.6067C12.594 11.8201 12.594 12.1662 12.3805 12.3797C12.1671 12.5932 11.821 12.5932 11.6075 12.3797ZM10.3191 13.6681C10.1056 13.4547 10.1056 13.1085 10.3191 12.8951C10.5325 12.6816 10.8786 12.6816 11.0921 12.8951C11.3056 13.1085 11.3056 13.4547 11.0921 13.6681C10.8786 13.8816 10.5325 13.8816 10.3191 13.6681ZM5.29423 13.5393C5.15191 13.397 5.15191 13.1662 5.29423 13.0239C5.43654 12.8816 5.66728 12.8816 5.80959 13.0239C5.95191 13.1662 5.95191 13.397 5.80959 13.5393C5.66728 13.6816 5.43654 13.6816 5.29423 13.5393ZM6.58264 14.8277C6.44033 14.6854 6.44033 14.4547 6.58264 14.3124C6.72496 14.17 6.9557 14.17 7.09801 14.3124C7.24034 14.4547 7.24034 14.6854 7.09801 14.8277C6.9557 14.97 6.72496 14.97 6.58264 14.8277ZM11.7363 14.8277C11.594 14.6854 11.594 14.4547 11.7363 14.3124C11.8786 14.17 12.1094 14.17 12.2517 14.3124C12.394 14.4547 12.394 14.6854 12.2517 14.8277C12.1094 14.97 11.8786 14.97 11.7363 14.8277ZM6.4538 12.3797C6.24033 12.1662 6.24033 11.8201 6.4538 11.6067C6.66728 11.3932 7.01338 11.3932 7.22687 11.6067C7.44034 11.8201 7.44034 12.1662 7.22687 12.3797C7.01338 12.5932 6.66728 12.5932 6.4538 12.3797ZM8.9018 12.5085C8.61718 12.2239 8.61718 11.7624 8.9018 11.4778C9.18643 11.1932 9.6479 11.1932 9.93252 11.4778C10.2171 11.7624 10.2171 12.2239 9.93252 12.5085C9.6479 12.7932 9.18643 12.7932 8.9018 12.5085ZM8.9018 9.93172C8.61718 9.64707 8.61718 9.18559 8.9018 8.90097C9.18643 8.61634 9.6479 8.61634 9.93252 8.90097C10.2171 9.18559 10.2171 9.64707 9.93252 9.93172C9.6479 10.2163 9.18643 10.2163 8.9018 9.93172ZM7.61337 11.2201C7.32874 10.9355 7.32874 10.474 7.61337 10.1894C7.89802 9.90475 8.35949 9.90475 8.64412 10.1894C8.92874 10.474 8.92874 10.9355 8.64412 11.2201C8.35949 11.5048 7.89802 11.5048 7.61337 11.2201Z" fill="black"/>
</svg>
