<svg width="24" height="24" viewBox="0 0 24 24" fill="none" xmlns="http://www.w3.org/2000/svg">
<circle cx="12" cy="12" r="12" fill="white"/>
<path fill-rule="evenodd" clip-rule="evenodd" d="M8.60422 17.8682L10.7128 18.4132V17.7006L10.8849 17.5329H12.0897V18.3712V18.958H10.7988L9.20664 18.2874L8.60422 17.8682Z" fill="#CDBDB2"/>
<path fill-rule="evenodd" clip-rule="evenodd" d="M15.4891 17.8682L13.4236 18.4132V17.7006L13.2515 17.5329H12.0466V18.3712V18.958H13.3376L14.9296 18.2874L15.4891 17.8682Z" fill="#CDBDB2"/>
<path fill-rule="evenodd" clip-rule="evenodd" d="M10.8849 16.3174L10.7127 17.7006L10.9279 17.5329H13.1654L13.4236 17.7006L13.2515 16.3174L12.9073 16.1078L11.186 16.1497L10.8849 16.3174Z" fill="#393939"/>
<path fill-rule="evenodd" clip-rule="evenodd" d="M9.72302 6.97003L10.7558 9.31733L11.2291 16.1497H12.9073L13.4236 9.31733L14.3703 6.97003H9.72302Z" fill="#F89C35"/>
<path fill-rule="evenodd" clip-rule="evenodd" d="M5.20485 12.1257L4 15.5209L7.01213 15.3532H8.94846V13.8862L8.8624 10.8682L8.4321 11.2036L5.20485 12.1257Z" fill="#F89D35"/>
<path fill-rule="evenodd" clip-rule="evenodd" d="M7.48541 12.5029L11.0139 12.5868L10.6267 14.3472L8.94845 13.9281L7.48541 12.5029Z" fill="#D87C30"/>
<path fill-rule="evenodd" clip-rule="evenodd" d="M7.48541 12.5449L8.94845 13.8862V15.2275L7.48541 12.5449Z" fill="#EA8D3A"/>
<path fill-rule="evenodd" clip-rule="evenodd" d="M8.94846 13.9282L10.6697 14.3473L11.2291 16.1497L10.8418 16.3593L8.94846 15.2695V13.9282Z" fill="#F89D35"/>
<path fill-rule="evenodd" clip-rule="evenodd" d="M8.94846 15.2695L8.60422 17.8683L10.8849 16.3174L8.94846 15.2695Z" fill="#EB8F35"/>
<path fill-rule="evenodd" clip-rule="evenodd" d="M11.014 12.5868L11.2291 16.1497L10.5836 14.3263L11.014 12.5868Z" fill="#EA8E3A"/>
<path fill-rule="evenodd" clip-rule="evenodd" d="M6.96909 15.3114L8.94849 15.2695L8.60424 17.8683L6.96909 15.3114Z" fill="#D87C30"/>
<path fill-rule="evenodd" clip-rule="evenodd" d="M4.94667 19L8.60422 17.8682L6.96906 15.3114L4 15.5209L4.94667 19Z" fill="#EB8F35"/>
<path fill-rule="evenodd" clip-rule="evenodd" d="M10.7557 9.31732L8.90546 10.8263L7.48541 12.5029L11.0139 12.6287L10.7557 9.31732Z" fill="#E8821E"/>
<path fill-rule="evenodd" clip-rule="evenodd" d="M8.60422 17.8682L10.8849 16.3173L10.7127 17.6586V18.4131L9.16365 18.1197L8.60422 17.8682Z" fill="#DFCEC3"/>
<path fill-rule="evenodd" clip-rule="evenodd" d="M15.4891 17.8682L13.2515 16.3173L13.4236 17.6586V18.4131L14.9727 18.1197L15.4891 17.8682Z" fill="#DFCEC3"/>
<path fill-rule="evenodd" clip-rule="evenodd" d="M10.0672 13.3412L10.5406 14.3054L8.86239 13.8862L10.0672 13.3412Z" fill="#393939"/>
<path fill-rule="evenodd" clip-rule="evenodd" d="M4.90359 5.00006L10.7557 9.31738L9.76608 6.97008L4.90359 5.00006Z" fill="#E88F35"/>
<path fill-rule="evenodd" clip-rule="evenodd" d="M4.90361 5L4.12906 7.30538L4.55936 9.82035L4.25815 9.98801L4.68845 10.3653L4.34421 10.6587L4.81755 11.0778L4.51633 11.3293L5.20482 12.1676L8.4321 11.2036C10.0099 9.97404 10.7844 9.3453 10.7557 9.31735C10.7271 9.28941 8.77635 7.85029 4.90361 5Z" fill="#8E5A30"/>
<path fill-rule="evenodd" clip-rule="evenodd" d="M18.8884 12.1257L20.0933 15.5209L17.0812 15.3532H15.1448V13.8862L15.2309 10.8682L15.6612 11.2036L18.8884 12.1257Z" fill="#F89D35"/>
<path fill-rule="evenodd" clip-rule="evenodd" d="M16.6078 12.5029L13.0794 12.5868L13.4666 14.3472L15.1448 13.9281L16.6078 12.5029Z" fill="#D87C30"/>
<path fill-rule="evenodd" clip-rule="evenodd" d="M16.6078 12.5449L15.1448 13.8862V15.2275L16.6078 12.5449Z" fill="#EA8D3A"/>
<path fill-rule="evenodd" clip-rule="evenodd" d="M15.1448 13.9282L13.4236 14.3473L12.8642 16.1497L13.2515 16.3593L15.1448 15.2695V13.9282Z" fill="#F89D35"/>
<path fill-rule="evenodd" clip-rule="evenodd" d="M15.1448 15.2695L15.489 17.8683L13.2515 16.3593L15.1448 15.2695Z" fill="#EB8F35"/>
<path fill-rule="evenodd" clip-rule="evenodd" d="M13.0794 12.5868L12.8642 16.1497L13.5097 14.3263L13.0794 12.5868Z" fill="#EA8E3A"/>
<path fill-rule="evenodd" clip-rule="evenodd" d="M17.1242 15.3114L15.1448 15.2695L15.4891 17.8683L17.1242 15.3114Z" fill="#D87C30"/>
<path fill-rule="evenodd" clip-rule="evenodd" d="M19.1466 19L15.4891 17.8682L17.1242 15.3114L20.0933 15.5209L19.1466 19Z" fill="#EB8F35"/>
<path fill-rule="evenodd" clip-rule="evenodd" d="M13.3375 9.31732L15.1878 10.8263L16.6078 12.5029L13.0794 12.6287L13.3375 9.31732Z" fill="#E8821E"/>
<path fill-rule="evenodd" clip-rule="evenodd" d="M14.026 13.3412L13.5526 14.3054L15.2309 13.8862L14.026 13.3412Z" fill="#393939"/>
<path fill-rule="evenodd" clip-rule="evenodd" d="M19.1897 5.00006L13.3375 9.31738L14.3272 6.97008L19.1897 5.00006Z" fill="#E88F35"/>
<path fill-rule="evenodd" clip-rule="evenodd" d="M19.1897 5L19.9643 7.30538L19.534 9.82035L19.8352 9.98801L19.4049 10.3653L19.7491 10.6587L19.2758 11.0778L19.577 11.3293L18.8885 12.1676L15.6612 11.2036C14.0834 9.97404 13.3089 9.3453 13.3376 9.31735C13.3663 9.28941 15.317 7.85029 19.1897 5Z" fill="#8E5A30"/>
</svg>
