<svg width="20" height="20" viewBox="0 0 20 20" fill="none" xmlns="http://www.w3.org/2000/svg">
<path d="M5.81663 19.9952C5.7034 19.9952 5.59271 19.9602 5.49856 19.8945C5.40441 19.8289 5.33102 19.7357 5.28766 19.6266C5.24431 19.5175 5.23293 19.3974 5.25498 19.2815C5.27702 19.1657 5.3315 19.0593 5.41152 18.9757L10.7189 13.4401C10.772 13.3844 10.8351 13.3403 10.9047 13.3103C10.9742 13.2803 11.0487 13.265 11.124 13.2652H15.0568L17.6914 10.5173H15.5952C15.1996 10.499 15.0224 10.2047 15.0224 9.91994C15.0224 9.6352 15.1996 9.34049 15.5952 9.32257H19.0274C19.1793 9.32257 19.325 9.38551 19.4324 9.49754C19.5398 9.60957 19.6001 9.76151 19.6001 9.91994V13.4608C19.583 13.8733 19.3004 14.0581 19.0274 14.0581C18.7544 14.0581 18.4718 13.8733 18.4547 13.4608V11.4102L15.6986 14.2847C15.6456 14.3405 15.5825 14.3847 15.5129 14.4147C15.4434 14.4448 15.3688 14.4602 15.2935 14.46H11.3607L6.22366 19.8204C6.17031 19.8762 6.10685 19.9204 6.03698 19.9504C5.9671 19.9804 5.8922 19.9957 5.81663 19.9952V19.9952ZM19.0278 19.9912C18.7548 19.9912 18.4726 19.8064 18.455 19.3939V16.6503C18.455 16.4919 18.5154 16.34 18.6228 16.2279C18.7302 16.1159 18.8759 16.053 19.0278 16.053C19.1797 16.053 19.3254 16.1159 19.4328 16.2279C19.5402 16.34 19.6005 16.4919 19.6005 16.6503V19.3947C19.5833 19.8072 19.3008 19.992 19.0278 19.992V19.9912ZM15.9732 19.9912C15.7002 19.9912 15.418 19.8064 15.4004 19.3939V16.6503C15.4004 16.4919 15.4608 16.34 15.5682 16.2279C15.6756 16.1159 15.8213 16.053 15.9732 16.053C16.1251 16.053 16.2708 16.1159 16.3782 16.2279C16.4856 16.34 16.5459 16.4919 16.5459 16.6503V19.3947C16.5287 19.8072 16.2462 19.992 15.9732 19.992V19.9912ZM12.9186 19.9912C12.646 19.9912 12.3634 19.8064 12.3458 19.3939V16.6503C12.3458 16.4919 12.4062 16.34 12.5136 16.2279C12.621 16.1159 12.7667 16.053 12.9186 16.053C13.0705 16.053 13.2162 16.1159 13.3236 16.2279C13.431 16.34 13.4913 16.4919 13.4913 16.6503V19.3947C13.4738 19.8072 13.1916 19.992 12.9186 19.992V19.9912ZM9.86398 19.9912C9.59098 19.9912 9.30842 19.8064 9.29124 19.3939V19.0792C9.29124 18.9208 9.35158 18.7689 9.45899 18.6568C9.5664 18.5448 9.71208 18.4819 9.86398 18.4819C10.0159 18.4819 10.1616 18.5448 10.269 18.6568C10.3764 18.7689 10.4367 18.9208 10.4367 19.0792V19.3947C10.4195 19.8072 10.137 19.992 9.86398 19.992V19.9912Z" fill="#F8F9FA"/>
<path opacity="0.4" d="M5.63084 15.8348C5.56084 15.8349 5.49144 15.8214 5.42618 15.795C3.98517 15.2375 2.69193 14.1713 1.78318 12.7946C0.87444 11.4179 0.381885 9.77389 0.400213 8.17214C0.39334 6.01005 1.18372 3.99054 2.62625 2.47998C4.13624 0.904878 6.18182 0.0159551 8.31736 0.00686646C10.1501 0.00686646 11.8683 0.675524 13.288 1.94116C14.6819 3.17382 15.6189 4.87581 15.9371 6.75278C15.9632 6.90884 15.9289 7.06935 15.8416 7.199C15.7543 7.32865 15.6212 7.41683 15.4716 7.44414C15.4387 7.45004 15.4054 7.45297 15.372 7.4529C15.2374 7.45267 15.1072 7.40301 15.0042 7.31264C14.9012 7.22226 14.832 7.09695 14.8088 6.95868C14.5387 5.34371 13.7301 3.88023 12.526 2.82668C11.3218 1.77313 9.79937 1.19727 8.22763 1.20081C4.40059 1.26692 2.1883 4.10802 1.69193 6.89576C1.19441 9.69265 2.28185 13.1817 5.83282 14.6783C5.95738 14.7283 6.0613 14.822 6.12664 14.9434C6.19197 15.0648 6.21462 15.2061 6.19067 15.3431C6.16672 15.48 6.09768 15.6039 5.99547 15.6934C5.89325 15.7829 5.76429 15.8324 5.63084 15.8332V15.8348Z" fill="#F8F9FA"/>
<path opacity="0.4" d="M8.26579 13.1083C8.11389 13.1083 7.96821 13.0454 7.86081 12.9333C7.7534 12.8213 7.69305 12.6694 7.69305 12.5109V11.8769L7.56705 11.8295C7.29566 11.7281 7.04646 11.571 6.83414 11.3676C6.62181 11.1642 6.45064 10.9186 6.3307 10.6451C6.29875 10.5734 6.28077 10.4958 6.2778 10.4168C6.27484 10.3378 6.28694 10.2589 6.31341 10.1848C6.33988 10.1107 6.38019 10.0429 6.43201 9.98514C6.48383 9.92742 6.54611 9.881 6.61526 9.84857C6.68441 9.81615 6.75904 9.79837 6.83483 9.79626C6.91062 9.79415 6.98606 9.80776 7.05676 9.83629C7.12747 9.86482 7.19204 9.90771 7.24674 9.96247C7.30143 10.0172 7.34515 10.0828 7.37537 10.1553C7.45447 10.3334 7.57981 10.4848 7.73718 10.5924C7.89455 10.7001 8.07766 10.7596 8.26579 10.7642H8.27343C8.92253 10.7363 9.21616 10.2278 9.21616 9.7686C9.21616 9.2907 8.89237 8.79528 8.27343 8.7682H8.26923C6.96186 8.74232 6.34139 7.77258 6.20737 6.94781C6.06228 6.05614 6.42692 4.95857 7.5682 4.5185L7.69305 4.47031V3.79369C7.71024 3.38111 7.99279 3.19632 8.26579 3.19632C8.5388 3.19632 8.82097 3.38111 8.83853 3.79369V4.46872L8.96606 4.51532C9.23538 4.61452 9.48158 4.7719 9.68858 4.97716C9.89558 5.18242 10.0587 5.43094 10.1673 5.70647C10.1989 5.77905 10.2162 5.85749 10.2183 5.93717C10.2204 6.01684 10.2071 6.09615 10.1794 6.17041C10.1516 6.24467 10.1099 6.31239 10.0567 6.36957C10.0034 6.42675 9.93975 6.47225 9.8694 6.50337C9.79905 6.53449 9.72343 6.55061 9.64701 6.55078C9.57059 6.55096 9.49491 6.53518 9.42443 6.50437C9.35395 6.47357 9.29009 6.42837 9.23662 6.37143C9.18314 6.31449 9.14113 6.24696 9.11306 6.17282C9.04536 5.99712 8.9281 5.847 8.77681 5.74232C8.62552 5.63765 8.44732 5.58334 8.26579 5.5866H8.25777C7.63845 5.61328 7.31505 6.10711 7.31505 6.58222C7.31505 7.05733 7.63922 7.54678 8.25777 7.57306H8.26197C9.56896 7.59895 10.1894 8.57386 10.3238 9.40102C10.4689 10.2951 10.1047 11.3946 8.96301 11.8355L8.83853 11.8837V12.5113C8.83853 12.6698 8.77819 12.8217 8.67078 12.9337C8.56337 13.0458 8.41769 13.1087 8.26579 13.1087V13.1083Z" fill="#F8F9FA"/>
</svg>
