<svg width="24" height="24" viewBox="0 0 24 24" fill="none" xmlns="http://www.w3.org/2000/svg">
<path d="M6.97999 23.9947C6.8441 23.9946 6.71128 23.9526 6.59829 23.8739C6.48531 23.7951 6.39724 23.6832 6.34522 23.5523C6.29319 23.4214 6.27954 23.2773 6.306 23.1383C6.33245 22.9992 6.39782 22.8715 6.49385 22.7713L12.8627 16.1285C12.9264 16.0617 13.0022 16.0088 13.0856 15.9728C13.1691 15.9368 13.2585 15.9184 13.3488 15.9187H18.0682L21.2297 12.6212H18.7142C18.2396 12.5992 18.027 12.246 18.027 11.9043C18.027 11.5626 18.2396 11.209 18.7142 11.1875H22.8329C23.0152 11.1875 23.19 11.263 23.3189 11.3975C23.4478 11.5319 23.5202 11.7142 23.5202 11.9043V16.1533C23.4996 16.6484 23.1605 16.8702 22.8329 16.8702C22.5053 16.8702 22.1662 16.6484 22.1456 16.1533V13.6926L18.8384 17.1421C18.7748 17.209 18.699 17.262 18.6156 17.2981C18.5321 17.3342 18.4426 17.3526 18.3523 17.3524H13.6329L7.46842 23.7849C7.4044 23.8519 7.32825 23.9049 7.2444 23.9409C7.16055 23.9769 7.07067 23.9952 6.97999 23.9947ZM22.8334 23.9899C22.5058 23.9899 22.1672 23.7681 22.1461 23.273V19.9808C22.1461 19.7907 22.2185 19.6084 22.3474 19.4739C22.4763 19.3395 22.6511 19.264 22.8334 19.264C23.0156 19.264 23.1905 19.3395 23.3194 19.4739C23.4482 19.6084 23.5207 19.7907 23.5207 19.9808V23.274C23.5 23.7691 23.161 23.9908 22.8334 23.9908V23.9899ZM19.1678 23.9899C18.8402 23.9899 18.5016 23.7681 18.4806 23.273V19.9808C18.4806 19.7907 18.553 19.6084 18.6819 19.4739C18.8108 19.3395 18.9856 19.264 19.1678 19.264C19.3501 19.264 19.5249 19.3395 19.6538 19.4739C19.7827 19.6084 19.8551 19.7907 19.8551 19.9808V23.274C19.8345 23.7691 19.4955 23.9908 19.1678 23.9908V23.9899ZM15.5023 23.9899C15.1752 23.9899 14.8361 23.7681 14.815 23.273V19.9808C14.815 19.7907 14.8874 19.6084 15.0163 19.4739C15.1452 19.3395 15.32 19.264 15.5023 19.264C15.6846 19.264 15.8594 19.3395 15.9883 19.4739C16.1172 19.6084 16.1896 19.7907 16.1896 19.9808V23.274C16.1685 23.7691 15.8299 23.9908 15.5023 23.9908V23.9899ZM11.8368 23.9899C11.5092 23.9899 11.1701 23.7681 11.1495 23.273V22.8955C11.1495 22.7054 11.2219 22.5231 11.3508 22.3886C11.4797 22.2542 11.6545 22.1787 11.8368 22.1787C12.0191 22.1787 12.1939 22.2542 12.3228 22.3886C12.4517 22.5231 12.5241 22.7054 12.5241 22.8955V23.274C12.5035 23.7691 12.1644 23.9908 11.8368 23.9908V23.9899Z" fill="#313E69"/>
<path opacity="0.4" d="M6.75695 19.0023C6.67296 19.0024 6.58967 18.9862 6.51136 18.9545C4.78215 18.2855 3.23026 17.0062 2.13977 15.3541C1.04928 13.702 0.458214 11.7292 0.480207 9.80712C0.471959 7.21261 1.42041 4.7892 3.15146 2.97653C4.96344 1.0864 7.41813 0.0196955 9.98078 0.00878906C12.1801 0.00878906 14.242 0.811179 15.9455 2.32994C17.6182 3.80914 18.7426 5.85152 19.1244 8.10389C19.1558 8.29116 19.1146 8.48377 19.0099 8.63935C18.9051 8.79493 18.7454 8.90075 18.5659 8.93352C18.5264 8.9406 18.4864 8.94412 18.4463 8.94403C18.2848 8.94376 18.1285 8.88417 18.005 8.77572C17.8814 8.66727 17.7984 8.51689 17.7705 8.35096C17.4464 6.413 16.4761 4.65683 15.0311 3.39257C13.5861 2.1283 11.7592 1.43728 9.87311 1.44152C5.28067 1.52086 2.62591 4.93018 2.03026 8.27546C1.43324 11.6317 2.73817 15.8186 6.99934 17.6145C7.14881 17.6745 7.27351 17.787 7.35191 17.9326C7.43032 18.0783 7.4575 18.2479 7.42876 18.4122C7.40002 18.5766 7.31717 18.7252 7.19451 18.8326C7.07186 18.94 6.91709 18.9994 6.75695 19.0004V19.0023Z" fill="#313E69"/>
<path opacity="0.4" d="M9.91876 15.7308C9.73648 15.7308 9.56166 15.6553 9.43277 15.5208C9.30388 15.3864 9.23147 15.2041 9.23147 15.014V14.2531L9.08027 14.1963C8.75459 14.0745 8.45556 13.8861 8.20077 13.642C7.94597 13.3979 7.74057 13.1031 7.59664 12.775C7.55831 12.689 7.53673 12.5958 7.53317 12.501C7.52961 12.4062 7.54413 12.3116 7.5759 12.2227C7.60766 12.1337 7.65604 12.0523 7.71822 11.983C7.78039 11.9137 7.85514 11.858 7.93812 11.8191C8.0211 11.7802 8.11066 11.7589 8.2016 11.7564C8.29255 11.7538 8.38307 11.7701 8.46792 11.8044C8.55277 11.8386 8.63026 11.8901 8.69589 11.9558C8.76152 12.0215 8.81399 12.1002 8.85025 12.1872C8.94517 12.4009 9.09557 12.5826 9.28442 12.7118C9.47326 12.8409 9.693 12.9123 9.91876 12.9179H9.92792C10.7068 12.8845 11.0592 12.2742 11.0592 11.7232C11.0592 11.1497 10.6706 10.5552 9.92792 10.5227H9.92288C8.35403 10.4916 7.60947 9.32794 7.44865 8.33822C7.27454 7.26821 7.71211 5.95112 9.08164 5.42304L9.23147 5.36522V4.55327C9.25209 4.05817 9.59115 3.83643 9.91876 3.83643C10.2464 3.83643 10.585 4.05817 10.606 4.55327V5.36331L10.7591 5.41922C11.0823 5.53826 11.3777 5.72712 11.6261 5.97343C11.8745 6.21975 12.0702 6.51797 12.2005 6.84861C12.2385 6.9357 12.2593 7.02983 12.2618 7.12544C12.2643 7.22105 12.2484 7.31622 12.2151 7.40533C12.1818 7.49445 12.1317 7.57571 12.0678 7.64433C12.0039 7.71295 11.9275 7.76754 11.8431 7.80488C11.7587 7.84223 11.6679 7.86157 11.5762 7.86178C11.4845 7.86199 11.3937 7.84305 11.3091 7.80609C11.2245 7.76913 11.1479 7.71488 11.0837 7.64655C11.0196 7.57822 10.9692 7.49719 10.9355 7.40823C10.8542 7.19739 10.7135 7.01724 10.532 6.89163C10.3504 6.76602 10.1366 6.70086 9.91876 6.70476H9.90913C9.16595 6.73678 8.77786 7.32938 8.77786 7.89951C8.77786 8.46964 9.16686 9.05697 9.90913 9.08852H9.91417C11.4826 9.11958 12.2271 10.2895 12.3884 11.2821C12.5625 12.3549 12.1254 13.6744 10.7554 14.2034L10.606 14.2613V15.0144C10.606 15.2046 10.5336 15.3869 10.4047 15.5213C10.2759 15.6558 10.101 15.7313 9.91876 15.7313V15.7308Z" fill="#313E69"/>
</svg>
