<svg width="32" height="32" viewBox="0 0 32 32" fill="#1FC7D4" xmlns="http://www.w3.org/2000/svg">
<path d="M9.30663 31.9924C9.12545 31.9923 8.94835 31.9363 8.79771 31.8313C8.64706 31.7263 8.52964 31.5771 8.46027 31.4025C8.3909 31.2279 8.3727 31.0358 8.40798 30.8505C8.44325 30.6651 8.53041 30.4948 8.65844 30.3611L17.1502 21.5041C17.2352 21.4151 17.3362 21.3446 17.4475 21.2966C17.5587 21.2485 17.678 21.224 17.7984 21.2244H24.0909L28.3062 16.8277H24.9523C24.3194 16.7984 24.0359 16.3275 24.0359 15.8719C24.0359 15.4163 24.3194 14.9448 24.9523 14.9161H30.4439C30.6869 14.9161 30.92 15.0168 31.0918 15.1961C31.2637 15.3753 31.3602 15.6184 31.3602 15.8719V21.5372C31.3327 22.1974 30.8807 22.493 30.4439 22.493C30.007 22.493 29.555 22.1974 29.5275 21.5372V18.2563L25.1179 22.8556C25.033 22.9448 24.932 23.0155 24.8207 23.0636C24.7095 23.1117 24.5901 23.1363 24.4697 23.136H18.1772L9.95787 31.7126C9.87251 31.802 9.77098 31.8727 9.65918 31.9207C9.54738 31.9687 9.42754 31.9931 9.30663 31.9924ZM30.4445 31.986C30.0077 31.986 29.5562 31.6903 29.5281 31.0302V26.6406C29.5281 26.3871 29.6246 26.1439 29.7965 25.9647C29.9683 25.7855 30.2014 25.6848 30.4445 25.6848C30.6875 25.6848 30.9206 25.7855 31.0924 25.9647C31.2643 26.1439 31.3608 26.3871 31.3608 26.6406V31.0315C31.3334 31.6916 30.8813 31.9873 30.4445 31.9873V31.986ZM25.5571 31.986C25.1203 31.986 24.6688 31.6903 24.6407 31.0302V26.6406C24.6407 26.3871 24.7373 26.1439 24.9091 25.9647C25.081 25.7855 25.3141 25.6848 25.5571 25.6848C25.8001 25.6848 26.0332 25.7855 26.2051 25.9647C26.3769 26.1439 26.4735 26.3871 26.4735 26.6406V31.0315C26.446 31.6916 25.9939 31.9873 25.5571 31.9873V31.986ZM20.6697 31.986C20.2335 31.986 19.7815 31.6903 19.7534 31.0302V26.6406C19.7534 26.3871 19.8499 26.1439 20.0218 25.9647C20.1936 25.7855 20.4267 25.6848 20.6697 25.6848C20.9128 25.6848 21.1459 25.7855 21.3177 25.9647C21.4896 26.1439 21.5861 26.3871 21.5861 26.6406V31.0315C21.558 31.6916 21.1066 31.9873 20.6697 31.9873V31.986ZM15.7824 31.986C15.3456 31.986 14.8935 31.6903 14.866 31.0302V30.5268C14.866 30.2733 14.9625 30.0302 15.1344 29.851C15.3063 29.6717 15.5393 29.571 15.7824 29.571C16.0254 29.571 16.2585 29.6717 16.4304 29.851C16.6022 30.0302 16.6988 30.2733 16.6988 30.5268V31.0315C16.6713 31.6916 16.2192 31.9873 15.7824 31.9873V31.986Z" fill="#1FC7D4"/>
<path opacity="0.4" d="M9.00931 25.3357C8.89732 25.3359 8.78627 25.3142 8.68186 25.272C6.37625 24.3799 4.30706 22.6741 2.85307 20.4714C1.39908 18.2686 0.610992 15.6382 0.640316 13.0754C0.62932 9.61608 1.89392 6.38486 4.20198 3.96798C6.61796 1.44781 9.89088 0.0255282 13.3077 0.0109863C16.2402 0.0109863 18.9893 1.08084 21.2607 3.10585C23.4909 5.07811 24.9902 7.8013 25.4993 10.8045C25.5411 11.0541 25.4862 11.311 25.3466 11.5184C25.2069 11.7258 24.9939 11.8669 24.7546 11.9106C24.7019 11.9201 24.6485 11.9248 24.5951 11.9246C24.3798 11.9243 24.1714 11.8448 24.0067 11.7002C23.8419 11.5556 23.7312 11.3551 23.694 11.1339C23.2619 8.54994 21.9682 6.20837 20.0415 4.52269C18.1148 2.837 15.679 1.91564 13.1642 1.9213C7.04093 2.02708 3.50126 6.57283 2.70706 11.0332C1.91103 15.5082 3.65093 21.0907 9.33249 23.4853C9.53178 23.5652 9.69805 23.7153 9.80259 23.9095C9.90713 24.1036 9.94337 24.3298 9.90505 24.5489C9.86673 24.768 9.75626 24.9663 9.59272 25.1095C9.42918 25.2526 9.22283 25.3318 9.00931 25.3332V25.3357Z" fill="#1FC7D4"/>
<path opacity="0.4" d="M13.2253 20.9733C12.9823 20.9733 12.7492 20.8726 12.5773 20.6934C12.4055 20.5141 12.3089 20.271 12.3089 20.0175V19.0031L12.1073 18.9273C11.6731 18.765 11.2744 18.5137 10.9346 18.1882C10.5949 17.8628 10.321 17.4698 10.1291 17.0323C10.078 16.9175 10.0493 16.7933 10.0445 16.6669C10.0398 16.5405 10.0591 16.4143 10.1015 16.2958C10.1438 16.1772 10.2083 16.0686 10.2912 15.9762C10.3741 15.8839 10.4738 15.8096 10.5844 15.7577C10.6951 15.7059 10.8145 15.6774 10.9358 15.674C11.057 15.6707 11.1777 15.6924 11.2908 15.7381C11.404 15.7837 11.5073 15.8524 11.5948 15.94C11.6823 16.0276 11.7523 16.1325 11.8006 16.2485C11.9272 16.5335 12.1277 16.7757 12.3795 16.9479C12.6313 17.1201 12.9243 17.2153 13.2253 17.2228H13.2375C14.2761 17.1782 14.7459 16.3645 14.7459 15.6298C14.7459 14.8652 14.2278 14.0725 13.2375 14.0292H13.2308C11.139 13.9877 10.1462 12.4362 9.93182 11.1165C9.69967 9.68984 10.2831 7.93373 12.1091 7.22963L12.3089 7.15253V6.06993C12.3364 5.40979 12.7885 5.11414 13.2253 5.11414C13.6621 5.11414 14.1136 5.40979 14.1417 6.06993V7.14998L14.3457 7.22453C14.7766 7.38325 15.1706 7.63506 15.5017 7.96348C15.8329 8.2919 16.0939 8.68953 16.2677 9.13038C16.3182 9.24651 16.346 9.37201 16.3493 9.49949C16.3526 9.62697 16.3315 9.75386 16.287 9.87268C16.2426 9.9915 16.1759 10.0998 16.0907 10.1913C16.0055 10.2828 15.9036 10.3556 15.7911 10.4054C15.6785 10.4552 15.5575 10.481 15.4352 10.4813C15.313 10.4816 15.1919 10.4563 15.0791 10.407C14.9663 10.3577 14.8642 10.2854 14.7786 10.1943C14.693 10.1032 14.6258 9.99516 14.5809 9.87654C14.4726 9.59542 14.285 9.35523 14.0429 9.18774C13.8008 9.02026 13.5157 8.93338 13.2253 8.93859H13.2125C12.2215 8.98128 11.7041 9.7714 11.7041 10.5316C11.7041 11.2918 12.2228 12.0749 13.2125 12.1169H13.2192C15.3104 12.1583 16.3031 13.7182 16.5182 15.0417C16.7503 16.4722 16.1675 18.2315 14.3408 18.9368L14.1417 19.0139V20.0182C14.1417 20.2717 14.0451 20.5148 13.8733 20.694C13.7014 20.8733 13.4683 20.974 13.2253 20.974V20.9733Z" fill="#1FC7D4"/>
</svg>
