<svg width="10" height="10" viewBox="0 0 10 10" fill="none" xmlns="http://www.w3.org/2000/svg">
<path d="M1.25 2.125C1.25 1.642 1.642 1.25 2.125 1.25H4.125C4.22446 1.25 4.31984 1.21049 4.39016 1.14017C4.46049 1.06984 4.5 0.974456 4.5 0.875C4.5 0.775544 4.46049 0.680161 4.39016 0.609835C4.31984 0.539509 4.22446 0.5 4.125 0.5H2.125C1.69402 0.5 1.2807 0.671205 0.975951 0.975951C0.671205 1.2807 0.5 1.69402 0.5 2.125V7.875C0.5 8.30598 0.671205 8.7193 0.975951 9.02405C1.2807 9.3288 1.69402 9.5 2.125 9.5H7.875C8.30598 9.5 8.7193 9.3288 9.02405 9.02405C9.3288 8.7193 9.5 8.30598 9.5 7.875V5.875C9.5 5.77554 9.46049 5.68016 9.39017 5.60984C9.31984 5.53951 9.22446 5.5 9.125 5.5C9.02554 5.5 8.93016 5.53951 8.85983 5.60984C8.78951 5.68016 8.75 5.77554 8.75 5.875V7.875C8.75 8.10706 8.65781 8.32962 8.49372 8.49372C8.32962 8.65781 8.10706 8.75 7.875 8.75H5V6.375C5 6.19443 4.96443 6.01563 4.89533 5.84881C4.82623 5.68199 4.72495 5.53041 4.59727 5.40273C4.46959 5.27505 4.31801 5.17377 4.15119 5.10467C3.98437 5.03557 3.80557 5 3.625 5H1.25V2.125ZM1.25 5.75H3.625C3.97 5.75 4.25 6.03 4.25 6.375V8.75H2.125C1.89294 8.75 1.67038 8.65781 1.50628 8.49372C1.34219 8.32962 1.25 8.10706 1.25 7.875V5.75ZM5.5 0.875C5.5 0.775544 5.53951 0.680161 5.60984 0.609835C5.68016 0.539509 5.77554 0.5 5.875 0.5H9.125C9.22446 0.5 9.31984 0.539509 9.39017 0.609835C9.46049 0.680161 9.5 0.775544 9.5 0.875V4.125C9.5 4.22446 9.46049 4.31984 9.39017 4.39016C9.31984 4.46049 9.22446 4.5 9.125 4.5C9.02554 4.5 8.93016 4.46049 8.85983 4.39016C8.78951 4.31984 8.75 4.22446 8.75 4.125V1.78L6.14 4.39C6.06891 4.45624 5.97489 4.4923 5.87774 4.49059C5.78059 4.48887 5.6879 4.44952 5.61919 4.38081C5.55048 4.3121 5.51113 4.21941 5.50941 4.12226C5.5077 4.02511 5.54376 3.93109 5.61 3.86L8.22 1.25H5.875C5.77554 1.25 5.68016 1.21049 5.60984 1.14017C5.53951 1.06984 5.5 0.974456 5.5 0.875Z" fill="white"/>
</svg>
