<svg width="12" height="12" viewBox="0 0 12 12" fill="none" xmlns="http://www.w3.org/2000/svg">
<path d="M1 2.16667C1 1.52267 1.52267 1 2.16667 1H4.83333C4.96594 1 5.09312 0.947322 5.18689 0.853553C5.28065 0.759785 5.33333 0.632608 5.33333 0.5C5.33333 0.367392 5.28065 0.240215 5.18689 0.146447C5.09312 0.0526784 4.96594 0 4.83333 0H2.16667C1.59203 0 1.04093 0.228273 0.634602 0.634602C0.228273 1.04093 0 1.59203 0 2.16667V9.83333C0 10.408 0.228273 10.9591 0.634602 11.3654C1.04093 11.7717 1.59203 12 2.16667 12H9.83333C10.408 12 10.9591 11.7717 11.3654 11.3654C11.7717 10.9591 12 10.408 12 9.83333V7.16667C12 7.03406 11.9473 6.90688 11.8536 6.81311C11.7598 6.71935 11.6326 6.66667 11.5 6.66667C11.3674 6.66667 11.2402 6.71935 11.1464 6.81311C11.0527 6.90688 11 7.03406 11 7.16667V9.83333C11 10.1428 10.8771 10.4395 10.6583 10.6583C10.4395 10.8771 10.1428 11 9.83333 11H6V7.83333C6 7.59258 5.95258 7.35418 5.86045 7.13175C5.76831 6.90932 5.63327 6.70721 5.46303 6.53697C5.29279 6.36673 5.09068 6.23169 4.86825 6.13955C4.64582 6.04742 4.40742 6 4.16667 6H1V2.16667ZM1 7H4.16667C4.62667 7 5 7.37333 5 7.83333V11H2.16667C1.85725 11 1.5605 10.8771 1.34171 10.6583C1.12292 10.4395 1 10.1428 1 9.83333V7ZM6.66667 0.5C6.66667 0.367392 6.71935 0.240215 6.81311 0.146447C6.90688 0.0526784 7.03406 0 7.16667 0H11.5C11.6326 0 11.7598 0.0526784 11.8536 0.146447C11.9473 0.240215 12 0.367392 12 0.5V4.83333C12 4.96594 11.9473 5.09312 11.8536 5.18689C11.7598 5.28065 11.6326 5.33333 11.5 5.33333C11.3674 5.33333 11.2402 5.28065 11.1464 5.18689C11.0527 5.09312 11 4.96594 11 4.83333V1.70667L7.52 5.18667C7.42522 5.27499 7.29985 5.32307 7.17032 5.32078C7.04078 5.3185 6.91719 5.26602 6.82559 5.17441C6.73398 5.08281 6.6815 4.95922 6.67922 4.82968C6.67693 4.70015 6.72501 4.57478 6.81333 4.48L10.2933 1H7.16667C7.03406 1 6.90688 0.947322 6.81311 0.853553C6.71935 0.759785 6.66667 0.632608 6.66667 0.5Z" fill="#7645D9"/>
</svg>
