<svg width="16" height="16" viewBox="0 0 16 16" fill="none" xmlns="http://www.w3.org/2000/svg">
<path d="M8 0C3.58039 0 0 3.5809 0 8C0 12.4191 3.5809 16 8 16C12.4196 16 16 12.4191 16 8C16 3.5809 12.4191 0 8 0ZM11.9293 5.48077L10.6163 11.6681C10.5192 12.1068 10.2581 12.2132 9.89368 12.0067L7.89368 10.5326L6.92903 11.4617C6.82271 11.568 6.73239 11.6583 6.52594 11.6583L6.66787 9.62271L10.3742 6.27406C10.5357 6.13213 10.3386 6.05161 10.1254 6.19355L5.54477 9.07716L3.57058 8.4609C3.14168 8.32568 3.13187 8.032 3.6609 7.82555L11.3739 4.8511C11.7321 4.72206 12.0449 4.93832 11.9288 5.48026L11.9293 5.48077Z" fill="#7645D9"/>
</svg>
