<svg width="32" height="32" viewBox="0 0 32 32" fill="none" xmlns="http://www.w3.org/2000/svg">
<path d="M11.56 18.6666H5.33335C3.86669 18.6666 2.66669 19.8666 2.66669 21.3333V29.3333H11.56V18.6666Z" stroke="white" stroke-width="1.5" stroke-miterlimit="10" stroke-linecap="round" stroke-linejoin="round"/>
<path d="M17.7734 13.3334H14.2134C12.7467 13.3334 11.5467 14.5334 11.5467 16V29.3334H20.44V16C20.44 14.5334 19.2534 13.3334 17.7734 13.3334Z" stroke="white" stroke-width="1.5" stroke-miterlimit="10" stroke-linecap="round" stroke-linejoin="round"/>
<path d="M26.6667 22.6666H20.44V29.3333H29.3333V25.3333C29.3333 23.8666 28.1333 22.6666 26.6667 22.6666Z" stroke="white" stroke-width="1.5" stroke-miterlimit="10" stroke-linecap="round" stroke-linejoin="round"/>
<path opacity="0.4" d="M16.6933 2.76001L17.4 4.17334C17.4933 4.37334 17.7467 4.56 17.96 4.58667L19.24 4.80001C20.0533 4.93334 20.2533 5.53331 19.6667 6.10665L18.6667 7.10665C18.4933 7.27998 18.4 7.59999 18.4533 7.82666L18.7333 9.05334C18.96 10.0267 18.44 10.4 17.5867 9.89335L16.3867 9.18669C16.1733 9.05335 15.8133 9.05335 15.6 9.18669L14.4 9.89335C13.5467 10.4 13.0267 10.0267 13.2533 9.05334L13.5333 7.82666C13.5867 7.59999 13.4933 7.26665 13.32 7.10665L12.3333 6.11999C11.7467 5.53333 11.9333 4.94665 12.76 4.81331L14.04 4.60001C14.2533 4.56001 14.5067 4.37335 14.6 4.18668L15.3067 2.77331C15.6933 1.99998 16.3067 2.00001 16.6933 2.76001Z" stroke="white" stroke-width="1.5" stroke-linecap="round" stroke-linejoin="round"/>
</svg>
