<svg width="6" height="5" viewBox="0 0 6 5" fill="none" xmlns="http://www.w3.org/2000/svg">
<path d="M3.37649 0.93L5.77449 3.671C6.05749 3.9935 5.82749 4.5 5.39799 4.5H0.601994C0.505872 4.50008 0.411763 4.47246 0.330938 4.42043C0.250113 4.3684 0.185997 4.29418 0.146269 4.20665C0.106541 4.11913 0.092885 4.022 0.106936 3.92691C0.120986 3.83182 0.162149 3.7428 0.225494 3.6705L2.62349 0.9305C2.67042 0.876795 2.7283 0.833752 2.79324 0.80426C2.85818 0.774768 2.92867 0.75951 2.99999 0.75951C3.07132 0.75951 3.14181 0.774768 3.20675 0.80426C3.27169 0.833752 3.32956 0.876795 3.37649 0.9305V0.93Z" fill="#7645D9"/>
</svg>
