<svg width="24" height="24" viewBox="0 0 24 24" fill="none" xmlns="http://www.w3.org/2000/svg">
<circle cx="12" cy="12" r="12" fill="#7645D9"/>
<path fill-rule="evenodd" clip-rule="evenodd" d="M19.0873 13.2843C19.4586 13.4119 19.8527 13.457 20.2428 13.4165C20.6299 13.6604 21.0731 13.7983 21.5289 13.8164C21.0028 13.9277 19.5206 13.9451 19.0873 13.2843ZM17.3094 12.2967C17.4574 12.4283 17.5608 12.6034 17.6052 12.7975C17.6105 12.9551 17.5737 13.1113 17.4986 13.2496C17.4036 13.1886 17.3277 13.1017 17.2797 12.9989C17.2316 12.8962 17.2133 12.7817 17.2269 12.6688L17.3094 12.2967ZM14.7234 6.35376C17.3851 8.34982 17.3541 8.91317 17.8459 9.22962C18.0534 9.41838 18.2846 9.57857 18.5337 9.70603C18.8913 9.96287 19.1588 10.3283 19.2971 10.7493C19.3384 11.0657 19.218 11.1805 19.218 11.1805C19.0781 11.0861 18.9548 10.9685 18.8535 10.8327C18.7776 10.7261 18.7174 10.609 18.6747 10.485C18.6747 10.485 18.9429 12.0568 20.2497 12.6097C20.334 12.6622 20.4213 12.7098 20.511 12.7523C20.9144 12.9585 21.356 13.077 21.8075 13.1C21.8075 13.1 20.088 13.1835 19.4587 12.9992C19.0193 12.8431 18.6281 12.5734 18.3239 12.2168C18.363 12.4192 18.4413 12.6119 18.5543 12.7836C18.6471 12.9096 18.7519 13.0261 18.8672 13.1313C18.6823 13.4891 18.4025 13.7878 18.0591 13.9937C17.5364 14.2789 16.7798 14.9674 16.632 15.416C16.4841 15.8646 16.4188 16.0489 16.4188 16.0489L15.841 16.122C15.841 16.122 14.7234 15.5412 14.7234 15.0787C14.7234 14.6162 14.6925 14.2302 14.6925 14.2302L14.2385 13.7712L13.4957 13.2704L12.6429 13.7816L13.2034 14.5223L11.8279 16.9844L10.4524 17.2382L10.0019 17.4921L9.45508 17.2939L9.96403 15.6316L10.5521 15.7742L10.6587 15.8403L10.9819 15.729L11.3671 14.9257L10.7756 14.6127C10.7305 14.601 10.6832 14.601 10.6381 14.6127C10.4139 14.6741 10.1824 14.7034 9.95028 14.6997C9.84952 14.7066 9.74842 14.7066 9.64766 14.6997C9.40694 14.6719 9.16278 14.6371 8.92206 14.5988C8.87823 14.5862 8.83177 14.5862 8.78795 14.5988L7.69439 16.8453L8.38216 18.584L8.51971 19.2447H6.4117L6.39106 19.2517C6.38233 19.244 6.3753 19.2345 6.37043 19.2239L6.28446 19.0952L6.40826 18.2571L5.80646 16.6923L6.09876 15.5621C6.54581 14.8666 7.36082 13.4756 8.16207 12.4324C8.3205 12.2469 8.53842 12.1238 8.77763 12.0846C9.06333 11.984 9.33319 11.8423 9.57888 11.6638L10.2219 11.7716H10.3836L10.8237 11.8273C10.92 11.8273 10.9854 12.0568 10.9854 12.0568C11.1347 12.0455 11.2812 12.009 11.4187 11.949C11.6044 11.8412 11.6594 11.6221 11.9139 11.636C12.1683 11.6499 12.8183 11.8412 12.9455 11.7856C13.0705 11.7263 13.1864 11.649 13.2894 11.556C13.2693 11.5183 13.238 11.4879 13.2 11.4691C13.1058 11.4267 13.0079 11.3929 12.9077 11.3683C12.9951 11.3332 13.0888 11.3166 13.1828 11.3196C13.3079 11.34 13.431 11.3714 13.5508 11.4135C13.7748 11.1679 13.954 10.8841 14.0803 10.5754C14.1182 10.4328 13.7365 10.2033 13.7365 10.2033L12.6257 9.16007C12.6283 8.85591 12.5275 8.56008 12.3403 8.322C11.9625 7.81707 11.5363 7.35114 11.0679 6.93102C11.0679 6.93102 11.0301 5.92951 10.5452 5.88778C10.0603 5.84605 9.77834 6.4546 9.77834 6.4546C9.77834 6.4546 9.77834 6.42678 9.51011 6.42678C9.24187 6.42678 7.31268 6.11729 7.03069 5.95385C6.71693 5.83246 6.38615 5.76204 6.05062 5.7452V5.21663C8.73636 4.16295 12.3403 4.58025 14.7234 6.35376ZM12.1202 9.13573C12.0351 9.03714 11.9243 8.96483 11.8004 8.92708C11.6525 8.92708 11.4049 8.92708 11.4049 8.92708C11.4049 8.92708 11.625 9.20876 11.8313 9.22962C11.8828 9.24089 11.9363 9.23883 11.9868 9.22363C12.0373 9.20844 12.0832 9.18059 12.1202 9.14268V9.13573Z" fill="#E7EBF3"/>
</svg>
