<svg width="122" height="38" viewBox="0 0 122 38" fill="none" xmlns="http://www.w3.org/2000/svg">
<g clip-path="url(#clip0)">
<path fill-rule="evenodd" clip-rule="evenodd" d="M34.3089 22.3146C35.268 22.644 36.2861 22.7605 37.2938 22.6559C38.2939 23.2861 39.4389 23.6422 40.6163 23.689C39.2571 23.9765 35.4282 24.0214 34.3089 22.3146ZM29.716 19.7633C30.0981 20.1031 30.3653 20.5555 30.48 21.0569C30.4938 21.4641 30.3987 21.8676 30.2046 22.2247C29.9594 22.0673 29.7633 21.8428 29.6391 21.5773C29.5149 21.3118 29.4676 21.0161 29.5028 20.7245L29.716 19.7633ZM23.0355 4.41055C29.9115 9.56705 29.8315 11.0224 31.1019 11.8399C31.6379 12.3275 32.2353 12.7413 32.8786 13.0706C33.8026 13.7341 34.4934 14.6781 34.8508 15.7656C34.9574 16.5831 34.6465 16.8796 34.6465 16.8796C34.285 16.6357 33.9666 16.332 33.7048 15.9812C33.5088 15.7059 33.3532 15.4033 33.2428 15.0829C33.2428 15.0829 33.9358 19.1434 37.3116 20.5718C37.5296 20.7073 37.755 20.8303 37.9867 20.9401C39.0288 21.4728 40.1697 21.7788 41.3359 21.8384C41.3359 21.8384 36.8941 22.054 35.2683 21.5779C34.1333 21.1747 33.1225 20.4778 32.3367 19.5566C32.4377 20.0796 32.64 20.5773 32.9319 21.021C33.1716 21.3465 33.4424 21.6474 33.7403 21.9193C33.2626 22.8436 32.5397 23.615 31.6527 24.1472C30.3023 24.8838 28.3479 26.6626 27.9659 27.8214C27.5839 28.9803 27.4151 29.4564 27.4151 29.4564L25.9227 29.6451C25.9227 29.6451 23.0355 28.1448 23.0355 26.95C23.0355 25.7552 22.9555 24.7581 22.9555 24.7581L21.7829 23.5723L19.864 22.2786L17.6608 23.5992L19.1089 25.5127L15.5554 31.873L12.0019 32.5288L10.8381 33.1845L9.42562 32.6725L10.7404 28.3784L12.2595 28.7467L12.5349 28.9174L13.37 28.6299L14.365 26.5548L12.837 25.7462C12.7204 25.7158 12.5982 25.7158 12.4816 25.7462C11.9027 25.9047 11.3046 25.9803 10.7049 25.9708C10.4446 25.9888 10.1834 25.9888 9.9231 25.9708C9.30124 25.899 8.6705 25.8091 8.04864 25.7103C7.93542 25.6776 7.8154 25.6776 7.70218 25.7103L4.87716 31.5136L6.6539 36.0053L7.00925 37.7122H1.56353L1.51023 37.7302C1.48767 37.7103 1.46951 37.6858 1.45693 37.6583L1.23484 37.3259L1.55465 35.1609L0 31.1183L0.755115 28.1987C1.91 26.402 4.01544 22.8087 6.08534 20.1136C6.49462 19.6346 7.05758 19.3166 7.67553 19.2153C8.41358 18.9554 9.11072 18.5893 9.74543 18.1283L11.4067 18.4068H11.8242L12.9613 18.5505C13.2101 18.5505 13.3789 19.1434 13.3789 19.1434C13.7647 19.1141 14.143 19.02 14.4982 18.8649C14.9779 18.5864 15.1201 18.0205 15.7775 18.0564C16.4349 18.0923 18.1139 18.5864 18.4426 18.4427C18.7655 18.2896 19.0648 18.0898 19.331 17.8498C19.279 17.7524 19.1983 17.6739 19.1 17.6252C18.8565 17.5156 18.6038 17.4284 18.3449 17.3647C18.5708 17.2741 18.8126 17.2312 19.0556 17.2389C19.3788 17.2916 19.6969 17.3728 20.0061 17.4815C20.5848 16.847 21.0479 16.114 21.3742 15.3165C21.4719 14.9481 20.4858 14.3552 20.4858 14.3552L17.6164 11.6602C17.623 10.8744 17.3627 10.1102 16.879 9.49518C15.9032 8.19076 14.8022 6.98711 13.5921 5.9018C13.5921 5.9018 13.4944 3.31457 12.2418 3.20677C10.9892 3.09897 10.2607 4.67107 10.2607 4.67107C10.2607 4.67107 10.2607 4.5992 9.56776 4.5992C8.87483 4.5992 3.89107 3.79967 3.1626 3.37745C2.35205 3.06386 1.49753 2.88194 0.630743 2.83845V1.47296C7.56892 -1.24902 16.8791 -0.17101 23.0355 4.41055ZM16.3105 11.5973C16.0907 11.3426 15.8044 11.1558 15.4843 11.0583C15.1023 11.0583 14.4627 11.0583 14.4627 11.0583C14.4627 11.0583 15.0312 11.786 15.5643 11.8399C15.6973 11.869 15.8354 11.8637 15.9659 11.8244C16.0963 11.7851 16.2149 11.7132 16.3105 11.6153V11.5973Z" fill="#7645D9"/>
<path d="M40.1633 31.8014C40.6724 32.0381 41.1033 32.4182 41.4042 32.8962C41.7052 33.3742 41.8634 33.9298 41.8601 34.4965C41.8601 36.2932 40.3054 37.6856 38.3066 37.6856H33.1629V26.5192H38.2C40.1633 26.5192 41.5935 27.7319 41.5935 29.3849C41.5827 29.8796 41.4443 30.3628 41.1918 30.7867C40.9394 31.2106 40.5817 31.5604 40.1544 31.8014H40.1633ZM38.8396 34.1371C38.8403 33.9963 38.8117 33.8568 38.7557 33.7278C38.6997 33.5988 38.6175 33.4832 38.5145 33.3883C38.4115 33.2935 38.29 33.2216 38.1577 33.1772C38.0255 33.1329 37.8855 33.1171 37.7469 33.131H36.0945V35.1612H37.7469C37.887 35.1753 38.0285 35.159 38.162 35.1137C38.2955 35.0683 38.4179 34.9947 38.5212 34.8979C38.6245 34.8011 38.7063 34.6832 38.7612 34.5521C38.8161 34.4209 38.8428 34.2795 38.8396 34.1371ZM37.6314 28.8998H36.0945V30.8492H37.6314C37.7658 30.8622 37.9013 30.8468 38.0294 30.8037C38.1575 30.7607 38.2753 30.691 38.3752 30.5992C38.4751 30.5075 38.5549 30.3956 38.6095 30.2708C38.6642 30.146 38.6924 30.011 38.6924 29.8745C38.6924 29.738 38.6642 29.603 38.6095 29.4782C38.5549 29.3534 38.4751 29.2415 38.3752 29.1497C38.2753 29.0579 38.1575 28.9883 38.0294 28.9453C37.9013 28.9022 37.7658 28.8867 37.6314 28.8998Z" fill="#7645D9"/>
<path d="M42.8817 32.1158C42.8817 28.6932 45.4224 26.2317 48.9848 26.2317C52.5471 26.2317 55.079 28.6842 55.079 32.1158C55.079 35.5475 52.5471 38 49.0025 38C45.4579 38 42.8817 35.5385 42.8817 32.1158ZM51.8897 32.1158C51.8775 31.5355 51.696 30.9718 51.3681 30.4954C51.0402 30.019 50.5804 29.6511 50.0465 29.438C49.5126 29.2249 48.9283 29.1759 48.367 29.2974C47.8057 29.4188 47.2923 29.7052 46.8914 30.1205C46.4904 30.5359 46.2197 31.0618 46.1133 31.6322C46.0068 32.2025 46.0693 32.792 46.2929 33.3266C46.5165 33.8612 46.8913 34.3171 47.3702 34.6371C47.8491 34.9571 48.4108 35.1269 48.9848 35.1253C49.3748 35.1344 49.7624 35.0622 50.1237 34.9132C50.4849 34.7642 50.8119 34.5417 51.0844 34.2594C51.3569 33.9771 51.569 33.6411 51.7076 33.2723C51.8461 32.9036 51.9081 32.5099 51.8897 32.1158Z" fill="#7645D9"/>
<path d="M55.9673 34.9546H58.8101V37.7305H55.9673V34.9546Z" fill="#7645D9"/>
<path d="M65.8638 31.5589H63.9627V37.7305H61.0044V31.5589H59.5919V29.2142H61.0488V28.3877C61.0101 28.0144 61.0551 27.637 61.1804 27.2836C61.3058 26.9302 61.5083 26.61 61.773 26.3467C62.0376 26.0834 62.3575 25.8839 62.7089 25.7628C63.0604 25.6418 63.4343 25.6025 63.8028 25.6478H65.8549V27.9296H64.549C64.4553 27.9199 64.3606 27.9314 64.2717 27.963C64.1828 27.9947 64.102 28.0458 64.0349 28.1128C63.9679 28.1797 63.9163 28.2608 63.8838 28.3503C63.8514 28.4398 63.8389 28.5354 63.8472 28.6303V29.2142H65.8638V31.5589Z" fill="#7645D9"/>
<path d="M66.9832 29.0795H69.9237V37.7305H66.9832V29.0795ZM66.9832 25.4861H69.8792V28.0104H67.0098L66.9832 25.4861Z" fill="#7645D9"/>
<path d="M80.2199 32.4482V37.7305H77.2883V32.8794C77.2883 31.8733 76.9152 31.3702 76.1778 31.3702C75.2895 31.3702 74.7298 32.017 74.7298 33.1669V37.7305H71.7804V29.0794H73.8414L74.2501 29.9778C74.5895 29.6075 75.0023 29.3138 75.4615 29.1157C75.9207 28.9175 76.416 28.8195 76.9152 28.8279C78.9229 28.8189 80.2199 30.2473 80.2199 32.4482Z" fill="#7645D9"/>
<path d="M91.0758 29.0705V37.7305H88.8371L88.5795 37.1196C87.8505 37.7136 86.9393 38.0314 86.0032 38.018C85.4061 38.0297 84.813 37.9173 84.2605 37.6878C83.7081 37.4582 83.2082 37.1164 82.7918 36.6835C82.3754 36.2506 82.0513 35.7359 81.8396 35.1711C81.628 34.6064 81.5333 34.0037 81.5613 33.4005C81.5356 32.7999 81.6322 32.2004 81.8453 31.6392C82.0583 31.078 82.3832 30.5671 82.7998 30.1383C83.2164 29.7094 83.7157 29.3718 84.2668 29.1464C84.8179 28.921 85.4089 28.8126 86.0032 28.8279C86.9514 28.806 87.8766 29.1243 88.615 29.7263L88.9171 29.0615L91.0758 29.0705ZM88.2774 33.3915C88.2722 33.0085 88.1549 32.6357 87.9405 32.32C87.7261 32.0043 87.4241 31.7598 87.0725 31.6173C86.7209 31.4748 86.3355 31.4407 85.9648 31.5194C85.5942 31.598 85.2548 31.7858 84.9894 32.0591C84.7241 32.3324 84.5447 32.679 84.4738 33.0552C84.4029 33.4315 84.4437 33.8205 84.591 34.1733C84.7384 34.5262 84.9857 34.827 85.3018 35.038C85.6179 35.249 85.9887 35.3606 86.3674 35.3589C86.6227 35.364 86.8762 35.3163 87.1126 35.2187C87.3489 35.1212 87.5631 34.9759 87.7419 34.7917C87.9208 34.6074 88.0605 34.3882 88.1526 34.1475C88.2447 33.9067 88.2872 33.6495 88.2774 33.3915Z" fill="#7645D9"/>
<path d="M101.372 32.4482V37.7305H98.4315V32.8794C98.4315 31.8733 98.0584 31.3702 97.3211 31.3702C96.4327 31.3702 95.873 32.017 95.873 33.1669V37.7305H92.9325V29.0794H94.9935L95.4022 29.9778C95.7416 29.6075 96.1544 29.3138 96.6136 29.1157C97.0728 28.9175 97.5681 28.8195 98.0673 28.8279C100.075 28.8189 101.372 30.2473 101.372 32.4482Z" fill="#7645D9"/>
<path d="M107.36 38C106.746 38.0275 106.133 37.9289 105.558 37.7104C104.983 37.4919 104.458 37.1578 104.014 36.7284C103.57 36.299 103.217 35.7832 102.976 35.212C102.735 34.6408 102.61 34.0261 102.61 33.405C102.61 32.7839 102.735 32.1692 102.976 31.598C103.217 31.0268 103.57 30.511 104.014 30.0816C104.458 29.6522 104.983 29.3181 105.558 29.0996C106.133 28.881 106.746 28.7825 107.36 28.81C108.46 28.7417 109.545 29.099 110.395 29.8097C111.244 30.5203 111.795 31.531 111.935 32.6369H109.074C108.947 32.293 108.719 31.9967 108.42 31.7879C108.122 31.5792 107.767 31.4679 107.404 31.4691C107.16 31.4684 106.918 31.5187 106.694 31.6168C106.47 31.7148 106.268 31.8586 106.102 32.039C105.935 32.2193 105.807 32.4326 105.725 32.6653C105.644 32.898 105.61 33.1452 105.627 33.3915C105.608 33.6393 105.639 33.8884 105.719 34.1233C105.8 34.3582 105.928 34.5736 106.095 34.7559C106.262 34.9383 106.464 35.0837 106.69 35.1828C106.915 35.282 107.158 35.3327 107.404 35.3319C107.78 35.3352 108.147 35.2141 108.448 34.987C108.75 34.7599 108.97 34.4394 109.074 34.0743H111.935C111.796 35.187 111.25 36.2068 110.405 36.9333C109.56 37.6598 108.477 38.0403 107.369 38H107.36Z" fill="#7645D9"/>
<path d="M121.938 34.1371H115.595C115.64 34.5717 115.851 34.9715 116.182 35.2516C116.514 35.5317 116.941 35.6701 117.372 35.6373C117.677 35.6543 117.982 35.5883 118.253 35.4462C118.525 35.304 118.755 35.0908 118.917 34.8288H121.849C121.609 35.6686 121.143 36.4242 120.502 37.0105C119.861 37.5969 119.071 37.9908 118.22 38.1479C117.37 38.3051 116.493 38.2193 115.689 37.9002C114.884 37.5811 114.183 37.0413 113.665 36.3416C113.147 35.6418 112.833 34.8098 112.757 33.9392C112.681 33.0685 112.846 32.1936 113.235 31.413C113.624 30.6323 114.22 29.9768 114.957 29.5201C115.694 29.0634 116.543 28.8237 117.407 28.8279C118.009 28.7974 118.61 28.8911 119.175 29.1031C119.74 29.3152 120.256 29.6412 120.693 30.0614C121.129 30.4815 121.476 30.9871 121.713 31.5472C121.95 32.1073 122.072 32.7104 122.071 33.3196C122.045 33.5949 122.001 33.8681 121.938 34.1371ZM115.648 32.4931H119.104C119.009 32.0961 118.779 31.7454 118.454 31.5024C118.129 31.2594 117.73 31.1395 117.327 31.1636C116.942 31.1473 116.563 31.2677 116.257 31.5039C115.95 31.7402 115.735 32.0774 115.648 32.4572V32.4931Z" fill="#7645D9"/>
</g>
<defs>
<clipPath id="clip0">
<rect width="122" height="38" fill="white"/>
</clipPath>
</defs>
</svg>
